<?xml version="1.0" encoding="UTF-8"?><svg id="Capa_1" xmlns="http://www.w3.org/2000/svg" viewBox="0 0 512 512"><defs><style>.cls-1{fill:#60b7fe;}.cls-1,.cls-2,.cls-3,.cls-4{fill-rule:evenodd;}.cls-2{fill:#ffbf31;}.cls-5{fill:#f0b16e;}.cls-4{fill:#19cfba;}</style></defs><path class="cls-1" d="M301.68,429.34c6.2,0,11.24-5.17,12.02-12.57l11.93-114.34h-27.91l-6.49,112.46c-.43,7.43,4.28,13.94,10.46,14.45Z"/><path class="cls-1" d="M353.96,429.34c-6.2,0-11.23-5.17-12.02-12.57l-12.11-114.34h28.09l6.49,112.46c.43,7.43-4.28,13.94-10.46,14.45h0Z"/><circle class="cls-5" cx="327.67" cy="180.18" r="21.32"/><path class="cls-4" d="M260.1,182.14c-4.63,3.24-7.15,11.03-2.54,14.31l34.49,24.56c6.48,4.61,6.7,13.35,6.7,21.31v26.38c0,5.41-2.1,9.69-3.16,15l-9.26,46.66h83.49l-9.76-46.66c-1.11-5.3-3.16-9.58-3.16-15v-26.39c0-7.95,2.15-14.78,6.7-21.31l48.07-68.86c3.24-4.63,2.09-11.07-2.54-14.31-4.63-3.24-10.69-1.8-14.31,2.54l-44.87,53.9c-5.68,6.82-13.11,10.7-21.98,10.7h-.31c-8.87,0-13.5-8.1-21.98-10.7l-31.29-9.6c-5.4-1.66-9.67-5.78-14.3-2.54h0Z"/><circle class="cls-5" cx="235.17" cy="147.65" r="23.22"/><path class="cls-1" d="M140.6,86.14c-5.05,3.52-6.12,10.42-2.77,15.58l58.54,90.17c4.72,7.26,7.3,14.54,7.3,23.2v46.17l-8.14,154.99c-.47,6.73,4.66,12.62,11.39,13.09,6.73.47,12.27-4.69,13.09-11.39l14.66-120.42h1.09l15.01,120.42c.83,6.69,6.34,11.39,13.09,11.39s11.74-6.35,11.39-13.09l-8.24-154.99v-46.17c0-8.66,2.58-15.94,7.3-23.2l58.54-90.17c3.35-5.16,2.28-12.06-2.77-15.58-5.05-3.52-11.78-2.08-15.58,2.77l-55.05,70.31c-5.96,7.61-14.27,11.66-23.93,11.66h-.34c-9.66,0-17.98-4.05-23.93-11.66l-55.05-70.31c-3.79-4.85-10.53-6.29-15.58-2.77h0Z"/><path class="cls-2" d="M199.89,276.17c4.13,1.96,1.98,9.85-.13,13.11l-21.76,33.57c-3.87,5.97-5.97,12.97-5.47,19.46l6.15,79.75c.38,3.75-3.81,7.03-9.31,7.29-5.51.26-9.79-2.66-10.71-6.34l-12-48.15h-.89l-12.28,48.15c-.94,3.67-5.19,6.34-10.71,6.34s-9.61-3.54-9.32-7.29l4.96-63.51c2.32-29.72-13.91-60.4-23.85-89.24-1.9-5.5-.51-18.33,3.46-23.03,4.41-5.22,11.6-1.97,12.08-.29,3.85,13.39,10.69,61.78,35.86,61.78h.27c22.31,0,30.83-20.73,40.88-33.44,2.55-3.23,8.62-.13,12.74,1.83h0Z"/><circle class="cls-5" cx="145.79" cy="288.89" r="18.86"/><path class="cls-3" d="M354.76,283.39c-.31-1.34-.68-2.65-1.07-4.02-1-3.47-2.04-7.07-2.04-11.46v-26.38c0-9.11,2.53-17.18,7.76-24.65l48.07-68.86c1.4-2,.91-4.77-1.09-6.17-2.17-1.51-4.9-.39-6.47,1.49l-44.88,53.9c-6.98,8.38-16.13,12.81-26.47,12.81h-.31c-6.99,0-11.8-3.48-16.04-6.55-2.55-1.85-4.97-3.59-7.65-4.42l-23.26-7.14-1.52,2.33c-1.54,2.38-2.77,4.68-3.73,6.96l19.96,14.21c9.16,6.52,9.16,18.28,9.16,26.07v26.38c0,4.31-1.02,7.83-2,11.24-.48,1.68-.94,3.25-1.27,4.9l-7.87,39.67h69.17,0s-1.22-5.82-1.22-5.82M359.18,414.43l-4.56-79.03h-14.73l8.46,79.95c.45,4.21,2.88,7.18,5.94,7.34,2.56-.4,5.14-3.79,4.88-8.27h0ZM308.48,415.37c-.44,4.2-2.86,7.17-5.95,7.33-2.55-.4-5.14-3.79-4.88-8.27l4.57-79.03h14.6l-8.35,79.96ZM268.09,421.05c-.71.76-1.92,1.66-3.63,1.66-3.83,0-6.83-2.58-7.29-6.27l-15.02-120.43c-.36-2.92-2.84-5.12-5.8-5.12h-1.08c-2.95,0-5.45,2.21-5.81,5.15l-14.66,120.42c-.46,3.81-3.42,6.5-6.88,6.26-1.69-.12-3.25-.9-4.39-2.2-1.13-1.3-1.69-2.95-1.57-4.65,0-.03,0-.06,0-.09l8.14-154.99c0-.1,0-.2,0-.31v-46.18c0-9.35-2.62-17.72-8.24-26.38l-58.54-90.16c-1.7-2.61-1.16-5.95,1.21-7.61,2.36-1.64,5.64-.97,7.63,1.58l55.06,70.31c6.7,8.55,16.24,13.43,26.99,13.85.52.03,1.03.05,1.55.05h.34c11.38,0,21.52-4.93,28.53-13.9l55.06-70.31c2-2.55,5.28-3.23,7.63-1.58,2.37,1.66,2.91,4.99,1.22,7.61l-58.55,90.16c-5.61,8.67-8.23,17.05-8.23,26.39v46.18c0,.1,0,.2,0,.31l8.25,154.99c.1,1.93-.61,3.91-1.92,5.28h0ZM235.77,129.48c-9.59,0-17.38,7.79-17.38,17.37s7.31,16.88,16.47,17.36c.3,0,.6.02.91.02,9.58,0,17.37-7.79,17.37-17.38s-7.79-17.37-17.37-17.37h0ZM328.26,163.92c8.53,0,15.48,6.94,15.48,15.48s-6.94,15.47-15.48,15.47-15.47-6.94-15.47-15.47c0-8.53,6.94-15.48,15.47-15.48ZM173.69,318.89l21.76-33.57c.89-1.37,1.54-3.8,1.55-5.11-1.45-.69-3.93-1.84-5.37-2.14-1.64,2.17-3.3,4.59-5.03,7.14-8.38,12.31-18.81,27.64-39.74,27.64h-.27s-.06,0-.08,0c-.03,0-.06,0-.08,0-6.59,0-12.57-2.6-17.01-6.8-13.25-11.86-18.95-36.52-22.44-51.59-.51-2.22-.97-4.22-1.39-5.85-.7-.18-1.71-.22-2.47.68-2.34,2.77-3.79,13.3-2.4,17.35,2.29,6.66,4.89,13.31,7.64,20.35,9.04,23.19,18.39,47.17,16.51,71.25l-4.94,63.26c.29.4,1.45,1.23,3.46,1.23,3.23,0,4.9-1.36,5.04-1.94l12.28-48.14c.66-2.6,3-4.4,5.67-4.4h.89c2.69,0,5.02,1.82,5.67,4.43l11.99,48.14c.16.62,1.74,2.07,4.76,1.91,2.07-.1,3.33-.85,3.74-1.27l-6.14-79.47c-.59-7.63,1.68-15.83,6.39-23.1h0ZM146.42,275.1c-7.18,0-13.02,5.84-13.02,13.03,0,3.42,1.33,6.52,3.5,8.84,2.59,2.38,5.48,3.89,8.73,4.14.18,0,.35.02.53.02.1,0,.21,0,.32,0,7.14-.03,12.95-5.86,12.95-13.01,0-7.18-5.84-13.03-13.02-13.03h0ZM367.44,286.82l-1.07-5.12c-.42-2.01-.94-3.83-1.45-5.58-.85-2.94-1.58-5.48-1.58-8.22v-26.38c0-6.73,1.79-12.44,5.65-17.96l48.07-68.86c5.09-7.29,3.3-17.36-3.99-22.45-6.9-4.82-16.42-3.27-22.14,3.59l-35.53,42.67c-.46-14.58-12.45-26.29-27.14-26.29s-27.16,12.18-27.16,27.17c0,2.29.29,4.52.83,6.65l-13.99-4.29,50.41-77.64c5.14-7.91,3.24-18.27-4.32-23.55-7.41-5.17-17.75-3.43-23.53,3.96l-45.9,58.62c-1.84-14.27-14.05-25.34-28.82-25.34s-26.78,10.87-28.77,24.97l-45.62-58.25c-5.78-7.38-16.12-9.13-23.52-3.96-7.58,5.28-9.47,15.64-4.33,23.55l58.54,90.17c4.4,6.77,6.35,12.95,6.35,20.02v46.02l-.39,7.57c-4.85-1.85-10.9-2.99-14.87,2.04-2.14,2.7-4.12,5.62-6.22,8.7-1.93,2.84-3.84,5.64-5.84,8.25-.65-13.05-11.46-23.47-24.68-23.47-9.17,0-17.18,5.02-21.45,12.45-3.05-8.63-5.14-17.7-6.61-24.05-.76-3.28-1.41-6.1-2.02-8.21-1.05-3.65-5.03-5.72-8.41-6.45-5.25-1.12-10.39.59-13.75,4.58-5.42,6.41-7.05,21.4-4.52,28.71,2.37,6.88,5.13,13.95,7.79,20.79,8.56,21.97,17.43,44.68,15.75,66.09l-4.96,63.5c-.25,3.13.88,6.21,3.16,8.69,2.89,3.11,7.25,4.9,11.98,4.9,8.15,0,14.73-4.32,16.37-10.74l7-27.44,6.83,27.41c1.58,6.36,8.11,10.79,15.72,10.79.3,0,.61,0,.92-.02,4.95-.23,9.37-2.2,12.12-5.4,2.05-2.38,3.02-5.3,2.74-8.23l-6.14-79.7c-.39-5.01,1.26-10.78,4.53-15.83l12.53-19.33-5.73,109.19c-.32,4.79,1.25,9.44,4.42,13.09,3.18,3.65,7.58,5.85,12.39,6.19.41.02.82.04,1.23.04,9.1,0,16.9-7.05,18.07-16.55l9.46-77.74,9.69,77.76c1.19,9.57,9.14,16.51,18.9,16.51,4.57,0,8.88-1.89,12.12-5.3,3.51-3.71,5.38-8.79,5.1-13.94l-8.24-154.84v-46.02c0-.19,0-.38,0-.57l15.8,11.25c3.93,2.8,4.25,9.15,4.25,16.54v26.38c0,2.66-.72,5.14-1.54,8-.53,1.83-1.08,3.73-1.5,5.87l-9.26,46.65c-.34,1.72.1,3.5,1.22,4.85,1.11,1.36,2.77,2.14,4.52,2.14h3.58l-4.52,78.36c-.62,10.58,6.47,19.83,15.8,20.61.16.01.32.01.48.01,9.26,0,16.76-7.49,17.83-17.81l8.25-79.04,8.38,79.04c1.09,10.32,8.59,17.8,17.82,17.8.16,0,.33,0,.49-.01,9.32-.78,16.41-10.03,15.81-20.61l-4.53-78.36h4.09c1.76,0,3.42-.79,4.53-2.16,1.11-1.37,1.54-3.16,1.18-4.88l-.79-3.79M455.13,237.04"/></svg>