<svg clip-rule="evenodd" fill-rule="evenodd" height="512" stroke-linejoin="round" stroke-miterlimit="2" viewBox="0 0 64 64" width="512" xmlns="http://www.w3.org/2000/svg" xmlns:xlink="http://www.w3.org/1999/xlink"><clipPath id="_clip1"><path clip-rule="evenodd" d="m195 296.194c-2.043.307-4.043.31-6 .01v2.489c1.729.655 4.361.605 6-.003z"/></clipPath><clipPath id="_clip2"><path clip-rule="evenodd" d="m195 294.169v-31.085c-1.989.388-3.989.394-6 .001v31.092c1.952.336 3.952.331 6-.008z"/></clipPath><clipPath id="_clip3"><path clip-rule="evenodd" d="m197 262.422 22-11.729v35.249c-2.826 1.507-16.22 8.648-22 11.729z"/></clipPath><clipPath id="_clip4"><path clip-rule="evenodd" d="m187 297.669v-35.247l-22-11.729v35.249c2.827 1.506 16.221 8.641 22 11.727z"/></clipPath><clipPath id="_clip5"><path clip-rule="evenodd" d="m187 297.669v-35.247l-22-11.729v35.249c2.827 1.506 16.221 8.641 22 11.727z"/></clipPath><clipPath id="_clip6"><path clip-rule="evenodd" d="m201 267.746 14-7.412v3.87s-14 7.411-14 7.411z"/></clipPath><g transform="translate(-160 -240)"><g id="Icon"><path d="m192.001 257.94c-2.883-10.429-11.022-14.819-11.022-14.819-.269-.146-.59-.161-.871-.04s-.492.364-.571.659l-1.194 4.435c-5.373-2.751-9.232-3.169-9.232-3.169-.515-.058-.99.289-1.092.798l-.765 3.825-2.784-1.485c-.309-.165-.683-.155-.985.025-.301.181-.485.507-.485.858v37.515c0 .37.204.709.53.883 0 0 19.002 10.121 23.998 12.794 2.346 1.255 6.799 1.143 8.942.001 5.002-2.666 24-12.795 24-12.795.326-.174.53-.513.53-.883v-37.515c0-.351-.184-.677-.485-.858-.302-.18-.676-.19-.985-.025l-2.04 1.088-1.572-3.63c-.208-.478-.747-.717-1.24-.549-1.762.6-3.491 1.187-5.178 1.812l-.514-3.032c-.049-.291-.224-.545-.478-.694-.253-.15-.56-.18-.838-.083 0 0-12.561 4.446-15.669 14.884zm2.999 38.254c-2.043.307-4.043.31-6 .01v2.489c1.729.655 4.361.605 6-.003zm2-33.772 22-11.729v35.249c-2.826 1.507-16.22 8.648-22 11.729zm-10 35.247v-35.247l-22-11.729v35.249c2.827 1.506 16.221 8.641 22 11.727zm8-3.5v-31.085c-1.989.388-3.989.394-6 .001v31.092c1.952.336 3.952.331 6-.008zm-2-2.169v-3c0-.552-.448-1-1-1s-1 .448-1 1v3c0 .552.448 1 1 1s1-.448 1-1zm-2-24.5v18.5c0 .552.448 1 1 1s1-.448 1-1v-18.5c0-.552-.448-1-1-1s-1 .448-1 1zm8.532-1.24c-.327.173-.532.514-.532.884v6.132c0 .351.184.676.484.857.301.181.674.191.984.027l16-8.471c.327-.173.532-.513.532-.883v-6.133c0-.35-.184-.675-.484-.856-.301-.181-.674-.192-.984-.027zm1.468 1.486 14-7.412v3.87s-14 7.411-14 7.411zm-31.902-17.135c6.949 3.705 19.275 10.276 19.277 10.277.973.263 1.943.418 2.909.469-.019-.018-.037-.039-.055-.061-8.918-10.804-18.509-13.536-21.44-14.144zm46.622-.435-1.271-2.932c-8.321 2.831-15.866 5.496-21.622 13.977-.036.053-.072.098-.109.136.973-.053 1.943-.21 2.911-.47zm-35.57-1.016c2.846 1.645 6.008 3.93 9.192 7.096-2.272-5.906-6.302-9.311-8.23-10.675zm27.445-1.565c-.154-.912-.374-2.209-.374-2.209-2.48 1.066-8.506 4.104-11.758 9.6 3.633-3.482 7.726-5.634 12.132-7.391z"/><g transform="matrix(-1 0 0 1 384 0)"><path d="m195 296.194c-2.043.307-4.043.31-6 .01v2.489c1.729.655 4.361.605 6-.003z" fill="#e2910d"/><g clip-path="url(#_clip1)"><g transform="translate(.617)"><path d="m195 296.194c-2.043.307-4.043.31-6 .01v2.489c1.729.655 4.361.605 6-.003z" fill="#f8a928"/></g><g transform="matrix(.349 0 0 .121 135.472 265.138)"><path d="m166.472 250.186h1.876v37.54h-1.876z" fill="#f8ba55"/></g></g></g><g transform="matrix(-1 0 0 1 384 0)"><path d="m195 294.169v-31.085c-1.989.388-3.989.394-6 .001v31.092c1.952.336 3.952.331 6-.008z" fill="#e2910d"/><g clip-path="url(#_clip2)"><g transform="translate(.617)"><path d="m195 294.169v-31.085c-1.989.388-3.989.394-6 .001v31.092c1.952.336 3.952.331 6-.008z" fill="#f8a928"/></g><g transform="matrix(.349 0 0 1 135.472 11.44)"><path d="m166.472 250.186h1.876v37.54h-1.876z" fill="#f8ba55"/></g></g></g><path d="m193 292v-3c0-.552-.448-1-1-1s-1 .448-1 1v3c0 .552.448 1 1 1s1-.448 1-1z"/><path d="m191 267.5v18.5c0 .552.448 1 1 1s1-.448 1-1v-18.5c0-.552-.448-1-1-1s-1 .448-1 1z"/><path d="m197 262.422 22-11.729v35.249c-2.826 1.507-16.22 8.648-22 11.729z" fill="#e2910d"/><g clip-path="url(#_clip3)"><g transform="translate(-.8 1.494)"><path d="m197 262.422 22-11.729v35.249c-2.826 1.507-16.22 8.648-22 11.729z" fill="#f8a928"/></g></g><path d="m187 297.669v-35.247l-22-11.729v35.249c2.827 1.506 16.221 8.641 22 11.727z" fill="#c68315"/><g clip-path="url(#_clip4)"><g transform="translate(.93 1.138)"><path d="m187 297.669v-35.247l-22-11.729v35.249c2.827 1.506 16.221 8.641 22 11.727z" fill="#f8a928"/><g clip-path="url(#_clip5)"><g transform="matrix(.349 0 0 1 108.799 .507)"><path d="m166.472 250.186h1.876v37.54h-1.876z" fill="#fabf5d"/></g></g></g></g><path d="m199.532 266.26c-.327.173-.532.514-.532.884v6.132c0 .351.184.676.484.857.301.181.674.191.984.027l16-8.471c.327-.173.532-.513.532-.883v-6.133c0-.35-.184-.675-.484-.856-.301-.181-.674-.192-.984-.027z"/><path d="m201 267.746 14-7.412v3.87s-14 7.411-14 7.411z" fill="#d9d9d9"/><g clip-path="url(#_clip6)"><g transform="translate(-.566 .824)"><path d="m201 267.746 14-7.412v3.87s-14 7.411-14 7.411z" fill="#fff"/></g></g><g fill="#fcf3e7"><path d="m169.098 250.611c6.949 3.705 19.275 10.276 19.277 10.277.973.263 1.943.418 2.909.469-.019-.018-.037-.039-.055-.061-8.918-10.804-18.509-13.536-21.44-14.144z"/><path d="m215.72 250.176-1.271-2.932c-8.321 2.831-15.866 5.496-21.622 13.977-.036.053-.072.098-.109.136.973-.053 1.943-.21 2.911-.47z"/><path d="m180.15 249.16c2.846 1.645 6.008 3.93 9.192 7.096-2.272-5.906-6.302-9.311-8.23-10.675z"/><path d="m207.595 247.595c-.154-.912-.374-2.209-.374-2.209-2.48 1.066-8.506 4.104-11.758 9.6 3.633-3.482 7.726-5.634 12.132-7.391z"/></g></g></g></svg>