<?xml version="1.0" encoding="UTF-8"?>
<svg xmlns="http://www.w3.org/2000/svg" xmlns:xlink="http://www.w3.org/1999/xlink" version="1.1" id="Capa_1" x="0px" y="0px" viewBox="0 0 511.941 511.941" style="enable-background:new 0 0 511.941 511.941;" xml:space="preserve" width="512" height="512">
<g>
	<path style="fill:#F85647;" d="M338.794,56.775h31.895c10.238,0,17.468,10.03,14.23,19.744l-6.896,20.689&#10;&#9;&#9;c-1.026,3.079-1.026,6.408,0,9.487l6.896,20.689c3.238,9.713-3.992,19.744-14.23,19.744h-47.012c-8.284,0-15-6.716-15-15v-15.118&#10;&#9;&#9;c-17.344-8.004-25.029-27.887-18.674-43.751C297.062,55.637,319.912,46.791,338.794,56.775z"/>
	<path style="fill:#FD7A6E;" d="M338.791,41.662v60.35c0,8.28-6.71,15-15,15h-20.54c-22.987-3.258-40.026-23.153-39.751-45.846&#10;&#9;&#9;c0.264-21.766,16.393-40.699,38.311-44.504h21.98C332.08,26.662,338.791,33.372,338.791,41.662z"/>
	<path style="fill:#F85647;" d="M303.251,117.012h-60.44v-90.35h59C280.193,48.073,281.079,97.415,303.251,117.012z"/>
	<path style="fill:#EDEBFC;" d="M233.382,210.57V26.658c0-8.317,6.742-15.059,15.059-15.059c8.317,0,15.059,6.742,15.059,15.059&#10;&#9;&#9;v182.245L233.382,210.57z"/>
	<path style="fill:#48A024;" d="M316.098,210.46c-11.132-12.816-23.141-25.136-36.003-36.888c-16.614-15.18-42.157-15.18-58.771,0&#10;&#9;&#9;c-29.884,27.304-55.161,57.676-75.537,90.202c-2.444,9.441-16.474,67.529,19.441,119.937&#10;&#9;&#9;c32.456,47.359,96.885,77.219,134.71,59.226C345.502,421.262,364.759,324.298,316.098,210.46z"/>
	<path style="fill:#4EB229;" d="M202.18,292.079c-5.753-5.84-11.695-11.562-17.823-17.162c-17.289-15.797-43.872-15.797-61.161,0&#10;&#9;&#9;C71.382,322.258,32.873,378.464,9.095,439.13c-5.438,13.875,3.605,29.183,18.4,30.981c28.713,3.489,57.539,5.784,86.403,6.884&#10;&#9;&#9;c107.086,20.106,185.467-30.691,190.503-76.416C308.496,363.397,265.479,316.98,202.18,292.079z"/>
	<path style="fill:#6DC847;" d="M279.65,500.092c-48.18-0.91-96.31-4.28-144.21-10.1c-20.02-2.43-32.27-23.16-24.91-41.94&#10;&#9;&#9;c21.29-54.31,51.3-105.98,89.48-153.29l49.75,33.47c-0.87,10.6-1.32,21.58-1.32,32.82&#10;&#9;&#9;C248.441,420.132,260.951,471.832,279.65,500.092z"/>
	<path style="fill:#8CE09F;" d="M400.971,454.162c-0.85,11.06-8.89,27.5-47.08,45.38c-24.273,0.773-47.608,1.048-74.24,0.55&#10;&#9;&#9;c-15.64-23.64-26.95-63.68-30.23-110.72c-1.375-19.441-1.345-40.1,0.34-61.14C374.233,411.858,402.759,430.956,400.971,454.162z"/>
	<path style="fill:#9CDA82;" d="M477.37,489.992l-4.27,0.51c-103.38-90.879-185.643-120.788-223.73-156.98&#10;&#9;&#9;c-4.125-8.75-11.515-27.708-8.459-51.532c5.503-42.904,40.268-65.633,45.619-69.008c22.062-7.516,45.816-1.551,61.28,12.75&#10;&#9;&#9;c69.765,64.519,122.28,140.19,154.47,222.32C509.64,466.832,497.4,487.562,477.37,489.992z"/>
	<path style="fill:#6DC847;" d="M286.531,212.982c-24.558,27.526-34.87,83.722-37.16,120.54c-12.47-11.84-20.05-24.27-21.82-39.62&#10;&#9;&#9;c-0.99-8.54-0.64-22.1,8.37-39.84c9.32-9.68,19.02-19.13,29.09-28.33C271.41,219.882,278.761,215.632,286.531,212.982z"/>
	<path style="fill:#E4996D;" d="M473.1,490.502c-39.63,4.7-79.4,7.71-119.21,9.04c-3.408-59.652-59.682-81.432-104.47-110.17&#10;&#9;&#9;l-38.626-69.735l43.027-23.645C306.694,372.328,436.227,341.024,473.1,490.502z"/>
	<path style="fill:#D97C41;" d="M249.421,389.372c-33.55-21.52-59.71-46.64-49.41-94.61c11.26-13.96,23.24-27.54,35.91-40.7&#10;&#9;&#9;c3.92,16.96,10.07,30.63,17.9,41.93C248.513,326.497,247.312,359.553,249.421,389.372z"/>
</g>
<g>
	<path style="fill:none;stroke:#000000;stroke-width:15;stroke-linecap:round;stroke-linejoin:round;stroke-miterlimit:10;" d="&#10;&#9;&#9;M52.048,357.284c-17.451,26.002-31.817,53.435-42.953,81.846c-5.439,13.875,3.605,29.183,18.4,30.981&#10;&#9;&#9;c28.713,3.489,57.539,5.784,86.403,6.884"/>
	<path style="fill:none;stroke:#000000;stroke-width:15;stroke-linecap:round;stroke-linejoin:round;stroke-miterlimit:10;" d="&#10;&#9;&#9;M202.179,292.079c-5.753-5.84-11.695-11.563-17.823-17.161c-17.289-15.797-43.872-15.797-61.161,0&#10;&#9;&#9;c-17.963,16.412-34.326,33.889-49.031,52.249"/>
	<path style="fill:none;stroke:#000000;stroke-width:15;stroke-linecap:round;stroke-linejoin:round;stroke-miterlimit:10;" d="&#10;&#9;&#9;M502.282,448.052c-32.192-82.132-84.326-158.225-154.473-222.316c-23.407-21.386-59.395-21.386-82.802,0&#10;&#9;&#9;c-70.147,64.091-122.281,140.184-154.473,222.316c-7.363,18.785,4.881,39.509,24.91,41.943&#10;&#9;&#9;c113.515,13.793,228.328,13.803,341.926,0C497.4,487.561,509.645,466.837,502.282,448.052z"/>
	<path style="fill:none;stroke:#000000;stroke-width:15;stroke-linecap:round;stroke-linejoin:round;stroke-miterlimit:10;" d="&#10;&#9;&#9;M316.098,210.46c-11.132-12.816-23.141-25.136-36.003-36.888c-16.614-15.18-42.157-15.18-58.771,0&#10;&#9;&#9;c-29.883,27.304-55.161,57.676-75.537,90.202"/>
	<path style="fill:none;stroke:#000000;stroke-width:15;stroke-linecap:round;stroke-linejoin:round;stroke-miterlimit:10;" d="&#10;&#9;&#9;M200.922,290.807c-28.818,115.382,147.006,102.35,152.967,208.74"/>
	<path style="fill:none;stroke:#000000;stroke-width:15;stroke-linecap:round;stroke-linejoin:round;stroke-miterlimit:10;" d="&#10;&#9;&#9;M276.274,319.637c60.629,47.739,164.453,39.633,196.827,170.87"/>
	<path style="fill:none;stroke:#000000;stroke-width:15;stroke-linecap:round;stroke-linejoin:round;stroke-miterlimit:10;" d="&#10;&#9;&#9;M235.924,254.055c4.038,17.497,10.452,31.485,18.637,42.994"/>
	<path style="fill:none;stroke:#000000;stroke-width:15;stroke-linecap:round;stroke-linejoin:round;stroke-miterlimit:10;" d="&#10;&#9;&#9;M233.382,165.763V26.658c0-8.317,6.742-15.059,15.059-15.059h0c8.317,0,15.059,6.742,15.059,15.059v137.437"/>
	<path style="fill:none;stroke:#000000;stroke-width:15;stroke-linecap:round;stroke-linejoin:round;stroke-miterlimit:10;" d="&#10;&#9;&#9;M263.5,26.658h60.294c8.284,0,15,6.716,15,15v60.353c0,8.284-6.716,15-15,15H263.5"/>
	<path style="fill:none;stroke:#000000;stroke-width:15;stroke-linecap:round;stroke-linejoin:round;stroke-miterlimit:10;" d="&#10;&#9;&#9;M338.794,56.775h31.895c10.238,0,17.468,10.03,14.23,19.743l-6.897,20.69c-1.026,3.079-1.026,6.408,0,9.487l6.897,20.69&#10;&#9;&#9;c3.238,9.713-3.992,19.743-14.23,19.743h-47.012c-8.284,0-15-6.716-15-15V117.01"/>
</g>















</svg>
