<?xml version="1.0" encoding="UTF-8"?><svg id="Capa_1" xmlns="http://www.w3.org/2000/svg" viewBox="0 0 512 512"><defs><style>.cls-1{fill:#f29f5c;}.cls-2{fill:#ebeef2;}.cls-3{fill:#ed5575;}.cls-4{fill:#5c9cee;}.cls-5{fill:#cc3a60;}.cls-6{fill:#e59f6a;}.cls-7{fill:#3580d3;}.cls-8{fill:#d37d42;}.cls-9{fill:#f9c295;}</style></defs><path class="cls-1" d="M418.26,245.35l-13.01-105.65-24.37,3v-.02s-47.24-26.59-47.24-26.59c-5.04-2.84-10.82-4.07-16.58-3.54l-74.61,6.9c-9.17.85-17.37,6.08-21.99,14.04l-52.58,90.51c-3.88,6.68-.84,15.25,6.4,17.99l2.15.81c4.14,1.56,8.39,2.47,12.64,2.82l-6.66,5.8-13.33,11.61-37.91,32.34c-6.75,5.88-7.45,16.11-1.57,22.86l3.85,4.4c7.55,8.66,20.69,9.56,29.37,2.01l14.49,16.62c4.71,5.41,11.61,7.8,18.24,6.99,3.99-.49,7.87-2.14,11.12-4.98l14.47,16.62c4.73,5.42,11.63,7.8,18.26,6.98,3.99-.49,7.87-2.13,11.12-4.97l7.87,6.8c7.55,8.67,20.71,9.57,29.38,2.02l10.69-9.33,89.9-70.01.1-.09,35.47-.04-5.65-45.91Z"/><path class="cls-8" d="M379.73,264.08l-.1.09-89.9,70.01-10.69,9.33c-8.67,7.55-21.83,6.65-29.38-2.02l-7.87-6.8c-3.25,2.84-7.14,4.48-11.12,4.97-6.63.82-13.53-1.56-18.26-6.98l-14.47-16.62c-3.25,2.84-7.14,4.49-11.12,4.98-6.63.82-13.53-1.58-18.24-6.99l-14.49-16.62c-7.43,6.47-18.12,6.72-25.78,1.23-3.93,5.93-3.62,13.96,1.28,19.58l3.85,4.4c7.55,8.66,20.69,9.56,29.37,2.01l14.49,16.62c4.71,5.41,11.61,7.8,18.24,6.99,3.99-.49,7.87-2.14,11.12-4.98l14.47,16.62c4.73,5.42,11.63,7.8,18.26,6.98,3.99-.49,7.87-2.13,11.12-4.97l7.87,6.8c7.55,8.67,20.71,9.57,29.38,2.02l10.69-9.33,89.9-70.01.1-.09,35.47-.04-3.92-31.88-40.26,4.69Z"/><path class="cls-9" d="M396.1,309.78l-48.17-41.53-13.39-11.54-9.58-8.25-41.21-35.52,4.76-40.51c1.61-13.7-7.02-26.53-20.31-30.21l-89.82-24.85c-9.5-2.63-19.55,1.78-24.04,10.56l-11.3,22.05-48.49-3.29-12.42,105.72-5.4,45.95,47.2,3.14.1.09,98.6,84.99,10.74,9.27c8.71,7.5,21.87,6.53,29.37-2.18l14.38-16.69c3.26,2.82,7.16,4.44,11.15,4.9,6.64.78,13.52-1.64,18.22-7.09l14.38-16.7c3.26,2.82,7.16,4.45,11.15,4.92,6.64.78,13.52-1.65,18.2-7.09l14.4-16.7c8.71,7.5,21.85,6.53,29.35-2.17l3.82-4.43c5.84-6.78,5.08-17.01-1.7-22.85Z"/><path class="cls-6" d="M396.1,309.78l-14.67-12.65c4.77,6.32,4.67,15.32-.71,21.56l-4.06,4.7c-7.96,9.23-21.91,10.27-31.16,2.3l-15.28,17.73c-4.97,5.77-12.28,8.35-19.33,7.52-4.23-.5-8.37-2.23-11.83-5.22l-15.27,17.73c-4.99,5.79-12.3,8.35-19.34,7.52-4.23-.5-8.37-2.21-11.84-5.21l-15.27,17.71c-2.88,3.34-6.54,5.59-10.47,6.75l6.5,5.61c8.71,7.5,21.87,6.53,29.37-2.18l14.38-16.69c3.26,2.82,7.16,4.44,11.15,4.9,6.64.78,13.52-1.64,18.22-7.09l14.38-16.7c3.26,2.82,7.16,4.45,11.15,4.92,6.64.78,13.52-1.65,18.2-7.09l14.4-16.7c8.71,7.5,21.85,6.53,29.35-2.17l3.82-4.43c5.84-6.78,5.08-17.01-1.7-22.85Z"/><path class="cls-1" d="M126.39,301.38l-5.71,7.54c-6.22,8.21-4.61,19.92,3.61,26.14h0c8.22,6.22,19.92,4.61,26.14-3.61l5.71-7.54c6.22-8.21,4.6-19.92-3.61-26.14h0c-8.21-6.22-19.92-4.61-26.14,3.61Z"/><path class="cls-1" d="M161.18,317.25l-10.76,14.21c-6.22,8.21-4.6,19.92,3.61,26.14h0c8.21,6.22,19.92,4.61,26.14-3.61l10.76-14.21c6.22-8.21,4.6-19.92-3.61-26.14h0c-8.22-6.22-19.92-4.61-26.14,3.61Z"/><path class="cls-1" d="M194.83,334.62l-14.66,19.36c-6.22,8.21-4.6,19.92,3.61,26.14h0c8.21,6.22,19.92,4.61,26.14-3.61l14.66-19.36c6.22-8.21,4.6-19.92-3.61-26.14h0c-8.21-6.22-19.92-4.6-26.14,3.61Z"/><path class="cls-1" d="M225.43,356.03l-15.51,20.48c-6.22,8.21-4.6,19.92,3.61,26.14h0c8.21,6.22,19.92,4.61,26.14-3.61l15.51-20.48c6.22-8.21,4.61-19.92-3.61-26.14h0c-8.22-6.22-19.92-4.61-26.14,3.61Z"/><path class="cls-1" d="M380.89,142.68l-47.25-26.59c-5.04-2.84-10.82-4.07-16.58-3.54l-74.61,6.9c-9.17.85-17.37,6.08-21.99,14.04l-52.58,90.51c-3.88,6.68-.84,15.25,6.4,17.99l2.15.81c19.27,7.28,41.04,1.09,53.6-15.25l20.15-26.22s48.43,56.07,101.75-9.41"/><path class="cls-4" d="M479.79,105.56l24.71,200.75-57.79,7.11c-10.92,1.34-20.86-6.42-22.21-17.34l-19.84-161.2c-1.34-10.92,6.42-20.86,17.34-22.21l57.79-7.11Z"/><path class="cls-7" d="M445.75,290.77c-11.24,1.38-21.53-6.03-23.97-16.85l2.73,22.16c1.34,10.92,11.29,18.68,22.21,17.34l57.79-7.11-2.76-22.43-55.99,6.89Z"/><path class="cls-3" d="M32.21,105.56L7.5,306.31l57.79,7.11c10.92,1.34,20.86-6.42,22.21-17.34l19.84-161.2c1.34-10.92-6.42-20.86-17.34-22.21l-57.79-7.11Z"/><path class="cls-5" d="M66.65,290.27l-56.32-6.93-2.83,22.97,57.79,7.11c10.92,1.34,20.86-6.42,22.21-17.34l2.1-17.03c-4.61,7.7-13.46,12.38-22.95,11.21Z"/><circle class="cls-2" cx="464" cy="273.25" r="14.5"/><circle class="cls-2" cx="47.19" cy="273.25" r="14.5"/><path d="M256.1,346.44c-6.1-4.62-13.6-6.15-20.6-4.85-1.1-6.63-4.63-12.49-10-16.56-5.57-4.22-12.45-6.02-19.37-5.06-1.71.24-3.38.64-4.98,1.19-1.52-5.2-4.65-9.98-9.3-13.5-7.65-5.8-17.49-6.72-25.78-3.31-1.65-4.97-4.75-9.33-9.02-12.55-5.57-4.22-12.45-6.01-19.37-5.06-5.61.77-10.71,3.29-14.68,7.18l-27.45-1.83,16.83-136.68,30.15,2.05c.17.01.34.02.51.02,2.8,0,5.38-1.56,6.67-4.08l11.3-22.05c2.86-5.58,9.33-8.42,15.37-6.75l16.78,4.64c3.99,1.1,8.12-1.24,9.23-5.23,1.1-3.99-1.24-8.12-5.23-9.23l-16.78-4.64c-12.86-3.56-26.62,2.48-32.71,14.36l-9.05,17.65-24.4-1.66.58-4.7c1.85-15.01-8.86-28.72-23.87-30.57l-57.79-7.11c-4.12-.5-7.85,2.42-8.36,6.53-.51,4.11,2.42,7.85,6.53,8.36l57.79,7.11c3.29.4,6.23,2.07,8.28,4.68s2.94,5.87,2.54,9.17l-19.84,161.2c-.84,6.8-7.05,11.65-13.85,10.81l-57.79-7.11c-4.12-.5-7.85,2.42-8.36,6.53-.51,4.11,2.42,7.85,6.53,8.36l57.79,7.11c1.13.14,2.26.21,3.37.21,10.13,0,19.27-5.63,24-14.21l20.54,1.36c-2.46,4.75-3.4,10.13-2.65,15.54.96,6.92,4.55,13.06,10.12,17.27,4.59,3.48,10.08,5.31,15.74,5.31,1.21,0,2.42-.08,3.63-.25.08-.01.15-.03.23-.04,0,.08.02.15.03.23.96,6.92,4.55,13.06,10.12,17.27,4.71,3.57,10.26,5.3,15.76,5.3,1.29,0,2.58-.11,3.85-.29.86,6.73,4.32,13.12,10.14,17.53,4.71,3.57,10.26,5.3,15.76,5.3,1.29,0,2.57-.1,3.84-.29.01.08.02.17.03.25.96,6.92,4.55,13.06,10.12,17.27,4.59,3.48,10.07,5.31,15.74,5.31,1.21,0,2.42-.08,3.63-.25,6.92-.96,13.06-4.55,17.27-10.12l15.51-20.49c8.71-11.5,6.44-27.94-5.06-36.65ZM137.07,331.25c-2.95.41-5.89-.36-8.26-2.16-2.38-1.8-3.91-4.42-4.32-7.37-.41-2.95.36-5.89,2.16-8.26l5.71-7.54c1.8-2.38,4.42-3.91,7.37-4.32,2.95-.4,5.89.36,8.26,2.16,2.38,1.8,3.91,4.42,4.32,7.37s-.36,5.89-2.16,8.26l-5.71,7.54c-1.8,2.38-4.42,3.91-7.37,4.32ZM158.56,351.62c-2.38-1.8-3.91-4.42-4.32-7.37-.41-2.95.36-5.89,2.16-8.26l5.71-7.54s0,0,0,0l5.04-6.66c2.19-2.89,5.53-4.42,8.91-4.42,2.35,0,4.71.74,6.72,2.26,4.9,3.71,5.87,10.73,2.16,15.63l-10.76,14.21c-3.71,4.9-10.73,5.87-15.63,2.16ZM188.31,374.15c-2.38-1.8-3.91-4.42-4.32-7.37-.41-2.95.36-5.89,2.16-8.26,0,0,0,0,0,0l10.76-14.21h0l3.9-5.15c1.8-2.38,4.42-3.91,7.37-4.32,2.95-.41,5.89.36,8.26,2.16,4.9,3.71,5.87,10.72,2.16,15.63l-14.67,19.37s0,0,0,0c-3.72,4.9-10.73,5.87-15.63,2.16ZM249.21,374.03l-15.51,20.49c-1.8,2.38-4.42,3.91-7.37,4.32-2.96.41-5.89-.36-8.26-2.16s-3.91-4.42-4.32-7.37c-.41-2.95.36-5.89,2.16-8.26l14.66-19.36s0,0,0-.01l.84-1.11c1.8-2.38,4.42-3.91,7.37-4.32,2.95-.4,5.89.36,8.26,2.16,4.9,3.71,5.87,10.73,2.16,15.63Z"/><path d="M511.95,305.39c-.51-4.11-4.24-7.03-8.36-6.53l-57.79,7.11c-6.81.84-13.01-4.02-13.85-10.81l-.59-4.81h0l-.14-1.11-19.11-155.27c-.41-3.29.5-6.55,2.54-9.17,2.04-2.62,4.98-4.28,8.27-4.68l57.79-7.11c4.11-.51,7.03-4.25,6.53-8.36-.51-4.11-4.24-7.03-8.36-6.53l-57.79,7.11c-14.12,1.74-24.43,13.98-24.06,27.93l-14.57,1.79-45.13-25.4c-6.39-3.6-13.63-5.15-20.95-4.47-.02,0-.03,0-.05,0l-13.58,1.26c-4.12.38-7.16,4.03-6.78,8.16.38,4.12,4.03,7.15,8.16,6.78l13.62-1.26c4.26-.39,8.49.51,12.21,2.61l46.79,26.33c1.46.97,3.25,1.41,5.05,1.19l16.93-2.08,12.42,100.84,4.29,34.87-27,.02c-1.8,0-3.54.65-4.9,1.83l-2.09,1.63-67.78-58.42c15.49-4.45,30.25-15.22,44.06-32.18,2.61-3.21,2.13-7.94-1.08-10.55-3.21-2.62-7.94-2.13-10.55,1.08-15.43,18.95-31.65,28.7-48.22,28.99-24.14.45-41.87-19.56-42.04-19.75-1.48-1.71-3.64-2.65-5.89-2.6-2.25.06-4.36,1.14-5.73,2.93l-20.15,26.22c-10.62,13.82-28.7,18.96-45,12.81l-2.15-.81c-1.89-.71-2.66-2.19-2.95-3.01s-.63-2.45.39-4.19l52.58-90.51c3.4-5.85,9.46-9.72,16.2-10.35l31.13-2.88c4.12-.38,7.16-4.04,6.78-8.16-.38-4.12-4.04-7.16-8.16-6.78l-31.13,2.88c-11.57,1.07-21.95,7.7-27.79,17.75l-52.58,90.51c-2.96,5.1-3.53,11.2-1.55,16.76s6.27,9.93,11.78,12.01l2.15.81c6.34,2.4,12.88,3.55,19.33,3.55,16.45,0,32.32-7.54,42.86-21.25l15.03-19.56c8.05,6.94,23.08,17.22,42.26,18.49l97.95,84.42c1.76,1.52,2.83,3.63,3,5.95s-.57,4.57-2.08,6.32l-3.82,4.43c-4.8,5.55-13.22,6.17-18.79,1.38-.31-.27-.64-.5-.98-.71l-25.43-21.92c-3.14-2.7-7.87-2.35-10.58.78-2.7,3.14-2.35,7.87.78,10.58l20.66,17.82-9.42,10.94c-2.9,3.36-7.25,5.06-11.65,4.54-2.63-.31-5.1-1.4-7.13-3.15-.04-.03-.08-.06-.11-.09l-23.62-20.37c-3.14-2.7-7.87-2.35-10.58.78-2.7,3.14-2.35,7.87.78,10.58l18.05,15.57-9.48,11.01c-2.9,3.36-7.27,5.06-11.67,4.54-4.11-.49-7.84,2.46-8.32,6.57-.48,4.11,2.46,7.84,6.57,8.32,1.11.13,2.22.2,3.32.2,8.19,0,16.03-3.55,21.46-9.84l10.14-11.77c2.77,1.32,5.75,2.18,8.83,2.55,9.36,1.1,18.61-2.51,24.77-9.64l10.15-11.78c11.23,5.33,25.1,2.77,33.6-7.08l3.82-4.43c4.13-4.8,6.15-10.92,5.68-17.23-.47-6.31-3.37-12.07-8.16-16.2l-6.16-5.3,22.5-.02c2.46,12.96,13.86,22.3,26.92,22.3,1.11,0,2.24-.07,3.37-.21l57.79-7.11c4.11-.51,7.03-4.25,6.53-8.36Z"/><path d="M464,251.25c-12.13,0-22,9.87-22,22s9.87,22,22,22,22-9.87,22-22-9.87-22-22-22ZM464,280.25c-3.86,0-7-3.14-7-7s3.14-7,7-7,7,3.14,7,7-3.14,7-7,7Z"/><path d="M69.19,273.25c0-12.13-9.87-22-22-22s-22,9.87-22,22,9.87,22,22,22,22-9.87,22-22ZM40.19,273.25c0-3.86,3.14-7,7-7s7,3.14,7,7-3.14,7-7,7-7-3.14-7-7Z"/></svg>