<?xml version="1.0" encoding="UTF-8"?><svg id="Capa_1" xmlns="http://www.w3.org/2000/svg" viewBox="0 0 512 512"><defs><style>.cls-1{fill:#59d9a4;}.cls-2{fill:#ff5987;}.cls-3{fill:#4a78ff;}.cls-4{fill:#a0b5c5;}.cls-5{stroke-width:4px;}.cls-5,.cls-6{stroke:#000;stroke-miterlimit:10;}.cls-6{stroke-width:3px;}</style></defs><g id="_450_Options_Volume_Parameters_Sliders"><path class="cls-4" d="M422.09,133.1c0,14.96-12.12,27.08-27.08,27.08h-27.18c13.2-15.51,13.35-38.48,0-54.15h27.18c14.95,0,27.08,12.11,27.08,27.08Z"/><path class="cls-4" d="M422.09,369.4c0,14.96-12.12,27.08-27.08,27.08h-27.18c13.2-15.51,13.35-38.48,0-54.15h27.18c14.95,0,27.08,12.11,27.08,27.08Z"/><path class="cls-4" d="M104.55,224.17h27.19c-13.2,15.51-13.35,38.48,0,54.15h-27.19c-14.96,0-27.08-12.12-27.08-27.08,0-7.48,3.03-14.25,7.93-19.15,4.9-4.89,11.67-7.93,19.15-7.93Z"/><path class="cls-4" d="M104.55,106.02h199.49c-13.2,15.51-13.35,38.48,0,54.15H104.55c-14.95,0-27.08-12.11-27.08-27.08s12.12-27.08,27.08-27.08h0Z"/><path class="cls-4" d="M395.01,224.17c14.96,0,27.08,12.12,27.08,27.08,0,7.48-3.03,14.25-7.93,19.15-4.9,4.89-11.67,7.93-19.15,7.93h-199.49c13.2-15.51,13.35-38.48,0-54.15h199.49Z"/><path class="cls-4" d="M104.55,342.33h199.49c-13.2,15.51-13.35,38.48,0,54.15H104.55c-14.95,0-27.08-12.11-27.08-27.08s12.12-27.08,27.08-27.08h0Z"/><path class="cls-3" d="M377.78,369.4c0,23.09-18.74,41.85-41.85,41.85s-41.85-18.74-41.85-41.85,18.74-41.85,41.85-41.85,41.85,18.74,41.85,41.85Z"/><path class="cls-1" d="M205.47,251.25c0,23.09-18.74,41.85-41.85,41.85-12.78,0-24.22-5.73-31.89-14.77-13.2-15.51-13.35-38.48,0-54.15,7.67-9.04,19.11-14.77,31.89-14.77,23.09,0,41.85,18.74,41.85,41.85Z"/><path class="cls-2" d="M377.78,133.1c0,23.09-18.74,41.85-41.85,41.85s-41.85-18.74-41.85-41.85c0-10.33,3.74-19.78,9.95-27.08,7.67-9.04,19.11-14.77,31.89-14.77,23.09,0,41.85,18.74,41.85,41.85Z"/><path class="cls-6" d="M304.04,401.4H104.55c-8.54,0-16.58-3.33-22.63-9.36-6.05-6.06-9.37-14.09-9.37-22.64,0-17.65,14.36-32,32-32h199.49c2.72,0,4.92,2.2,4.92,4.92s-2.2,4.92-4.92,4.92H104.55c-12.22,0-22.15,9.94-22.15,22.15,0,5.91,2.3,11.48,6.49,15.67,4.18,4.18,9.75,6.48,15.67,6.48h199.49c2.72,0,4.92,2.2,4.92,4.92s-2.2,4.92-4.92,4.92Z"/><path class="cls-6" d="M395.01,401.4h-27.18c-2.72,0-4.92-2.2-4.92-4.92s2.2-4.92,4.92-4.92h27.18c12.22,0,22.15-9.94,22.15-22.15,0-5.91-2.3-11.48-6.49-15.67-4.18-4.18-9.75-6.48-15.67-6.48h-27.18c-2.72,0-4.92-2.2-4.92-4.92s2.2-4.92,4.92-4.92h27.18c8.54,0,16.58,3.33,22.63,9.36,6.05,6.06,9.37,14.09,9.37,22.64,0,17.65-14.36,32-32,32Z"/><path class="cls-6" d="M335.93,416.17c-13.75,0-26.74-6.02-35.65-16.51-7.17-8.42-11.12-19.17-11.12-30.26s3.95-21.84,11.13-30.27c8.9-10.49,21.89-16.5,35.64-16.5s26.74,6.02,35.65,16.51c7.17,8.42,11.12,19.17,11.12,30.26s-3.95,21.84-11.13,30.27c-8.9,10.49-21.89,16.5-35.64,16.5ZM335.93,332.48c-10.85,0-21.11,4.75-28.14,13.03-5.67,6.66-8.78,15.14-8.78,23.89s3.12,17.24,8.78,23.89c7.04,8.29,17.29,13.04,28.14,13.04s21.11-4.75,28.14-13.03c5.67-6.66,8.78-15.14,8.78-23.89s-3.12-17.24-8.78-23.89c-7.04-8.29-17.29-13.04-28.14-13.04Z"/><path class="cls-6" d="M395.01,283.25h-199.49c-2.72,0-4.92-2.2-4.92-4.92s2.2-4.92,4.92-4.92h199.49c5.92,0,11.48-2.3,15.67-6.49,4.18-4.19,6.48-9.75,6.48-15.67,0-12.22-9.94-22.15-22.15-22.15h-199.49c-2.72,0-4.92-2.2-4.92-4.92s2.2-4.92,4.92-4.92h199.49c17.64,0,32,14.36,32,32,0,8.54-3.33,16.58-9.36,22.63-6.06,6.05-14.09,9.37-22.64,9.37h0Z"/><path class="cls-6" d="M131.73,283.25h-27.19c-17.64,0-32-14.35-32-32,0-8.54,3.33-16.58,9.36-22.63,6.06-6.05,14.09-9.37,22.64-9.37h27.19c2.72,0,4.92,2.2,4.92,4.92s-2.2,4.92-4.92,4.92h-27.19c-5.91,0-11.48,2.3-15.67,6.49-4.18,4.18-6.48,9.75-6.48,15.67,0,12.22,9.94,22.15,22.15,22.15h27.19c2.72,0,4.92,2.2,4.92,4.92s-2.2,4.92-4.92,4.92Z"/><path class="cls-6" d="M163.62,298.02c-13.75,0-26.74-6.02-35.65-16.51-7.17-8.42-11.12-19.17-11.12-30.26s3.95-21.84,11.13-30.27c8.9-10.48,21.89-16.5,35.64-16.5s26.74,6.02,35.65,16.51c7.17,8.42,11.12,19.17,11.12,30.26s-3.95,21.84-11.13,30.27c-8.9,10.49-21.89,16.5-35.64,16.5ZM163.62,214.33c-10.85,0-21.11,4.75-28.14,13.03-5.67,6.66-8.78,15.14-8.78,23.89s3.12,17.24,8.78,23.89c7.03,8.29,17.29,13.04,28.14,13.04s21.11-4.75,28.14-13.03c5.67-6.66,8.78-15.14,8.78-23.89s-3.12-17.24-8.78-23.88c-7.03-8.29-17.29-13.04-28.14-13.04h0Z"/><path class="cls-5" d="M304.04,165.1H104.55c-8.54,0-16.58-3.33-22.63-9.36-6.05-6.06-9.37-14.09-9.37-22.64,0-17.64,14.36-32,32-32h199.49c2.72,0,4.92,2.2,4.92,4.92s-2.2,4.92-4.92,4.92H104.55c-12.22,0-22.15,9.94-22.15,22.15,0,5.91,2.3,11.48,6.49,15.67,4.18,4.18,9.75,6.48,15.67,6.48h199.49c2.72,0,4.92,2.2,4.92,4.92s-2.2,4.92-4.92,4.92Z"/><path class="cls-5" d="M395.01,165.1h-27.18c-2.72,0-4.92-2.2-4.92-4.92s2.2-4.92,4.92-4.92h27.18c12.22,0,22.15-9.94,22.15-22.15,0-5.91-2.3-11.48-6.49-15.67-4.19-4.18-9.75-6.48-15.67-6.48h-27.18c-2.72,0-4.92-2.2-4.92-4.92s2.2-4.92,4.92-4.92h27.18c8.54,0,16.58,3.33,22.63,9.36,6.05,6.06,9.37,14.09,9.37,22.64,0,17.64-14.36,32-32,32Z"/><path class="cls-5" d="M335.93,179.86c-13.75,0-26.74-6.02-35.65-16.51-7.17-8.42-11.12-19.17-11.12-30.26s3.95-21.84,11.13-30.27c8.9-10.48,21.89-16.5,35.64-16.5s26.74,6.02,35.65,16.51c7.17,8.42,11.12,19.17,11.12,30.26s-3.95,21.84-11.13,30.27c-8.9,10.48-21.89,16.5-35.64,16.5ZM335.93,96.17c-10.85,0-21.11,4.75-28.14,13.03-5.67,6.66-8.78,15.14-8.78,23.89s3.12,17.24,8.78,23.88c7.03,8.29,17.29,13.04,28.14,13.04s21.11-4.75,28.14-13.03c5.67-6.66,8.78-15.14,8.78-23.89s-3.12-17.24-8.78-23.88c-7.03-8.29-17.29-13.04-28.14-13.04Z"/></g></svg>