<?xml version="1.0" encoding="UTF-8"?><svg id="Capa_1" xmlns="http://www.w3.org/2000/svg" viewBox="0 0 512 512"><defs><style>.cls-1{fill:#fd4755;}.cls-2{fill:#fe646f;}.cls-3{fill:none;stroke:#000;stroke-linecap:round;stroke-linejoin:round;stroke-width:15px;}.cls-4{fill:#ea9b58;}.cls-5{fill:#7a6d79;}</style></defs><path class="cls-2" d="M389.62,322.49c0-30.58-24.79-55.37-55.37-55.37h-156.5c-30.58,0-55.37,24.79-55.37,55.37v123.28h267.25v-123.28h0Z"/><path class="cls-1" d="M334.25,267.12h-71.98c30.58,0,55.37,24.79,55.37,55.37v123.28h71.98v-123.28c0-30.58-24.79-55.37-55.37-55.37Z"/><circle class="cls-4" cx="256" cy="162.99" r="104.13"/><path class="cls-5" d="M256,58.86c-57.51,0-104.13,46.62-104.13,104.13h208.26c0-57.51-46.62-104.13-104.13-104.13Z"/><line class="cls-3" x1="151.87" y1="162.99" x2="360.13" y2="162.99"/><path class="cls-3" d="M295.65,445.78h93.98v-123.28c0-30.59-24.8-55.36-55.39-55.36h-156.5c-30.59,0-55.36,24.78-55.36,55.36v123.28h77.34"/><circle class="cls-3" cx="256" cy="162.99" r="104.13"/></svg>