<?xml version="1.0" encoding="UTF-8"?><svg id="Capa_1" xmlns="http://www.w3.org/2000/svg" viewBox="0 0 512 512"><defs><style>.cls-1{fill:#fd4755;}.cls-2{fill:#fe646f;}.cls-3{fill:none;stroke:#000;stroke-linecap:round;stroke-linejoin:round;stroke-width:15px;}.cls-4{fill:#ca6e59;}.cls-5{fill:#fe9901;}.cls-6{fill:#fb8801;}.cls-7{fill:#ea9b58;}.cls-8{fill:#fed2a4;}.cls-9{fill:#7a6d79;}</style></defs><path class="cls-2" d="M225.8,245.46c0-17.71-14.36-32.07-32.07-32.07h-90.64c-17.71,0-32.07,14.36-32.07,32.07v71.4h154.78v-71.4Z"/><path class="cls-1" d="M193.74,213.39h-41.69c17.71,0,32.07,14.36,32.07,32.07v71.4h41.69v-71.4c0-17.71-14.36-32.07-32.07-32.07Z"/><circle class="cls-4" cx="148.41" cy="153.09" r="60.31"/><path class="cls-9" d="M148.41,92.78c-16.35,0-31.18,6.52-42.04,17.09l32.52,32.52c6.85,6.85,16.14,10.7,25.83,10.7h44c0-33.31-27-60.31-60.31-60.31Z"/><path class="cls-2" d="M431.9,245.46c0-17.71-14.36-32.07-32.07-32.07h-90.64c-17.71,0-32.07,14.36-32.07,32.07v71.4h154.78v-71.4h0Z"/><path class="cls-1" d="M399.83,213.39h-41.69c17.71,0,32.07,14.36,32.07,32.07v71.4h41.69v-71.4c0-17.71-14.36-32.07-32.07-32.07Z"/><circle class="cls-6" cx="354.51" cy="74.06" r="32.6"/><circle class="cls-8" cx="354.51" cy="153.09" r="60.31"/><path class="cls-5" d="M354.51,92.78c-33.31,0-60.31,27-60.31,60.31h32.14c7.9,0,15.6-2.43,22.07-6.96l6.1-4.27,6.1,4.27c6.47,4.53,14.17,6.96,22.07,6.96h32.14c0-33.31-27-60.31-60.31-60.31Z"/><path class="cls-2" d="M328.85,409.24c0-17.71-14.36-32.07-32.07-32.07h-90.64c-17.71,0-32.07,14.36-32.07,32.07v71.4h154.78v-71.4h0Z"/><path class="cls-1" d="M296.78,377.17h-41.69c17.71,0,32.07,14.36,32.07,32.07v71.4h41.69v-71.4c0-17.71-14.36-32.07-32.07-32.07Z"/><circle class="cls-7" cx="251.46" cy="316.86" r="60.31"/><path class="cls-9" d="M251.46,256.56c-33.31,0-60.31,27-60.31,60.31h120.62c0-33.31-27-60.31-60.31-60.31Z"/><path class="cls-3" d="M106.37,109.87l32.52,32.52c6.85,6.85,16.14,10.7,25.83,10.7h44"/><path class="cls-3" d="M191.15,316.86h-120.13v-71.4c0-17.71,14.37-32.06,32.06-32.06h90.65c11.16,0,20.98,5.7,26.73,14.35"/><circle class="cls-3" cx="148.41" cy="153.09" r="60.31"/><path class="cls-3" d="M377.39,97.27c6-5.9,9.72-14.13,9.72-23.2,0-18.01-14.59-32.61-32.6-32.61s-32.6,14.61-32.6,32.61c0,9.08,3.72,17.3,9.72,23.2"/><path class="cls-3" d="M294.2,153.09h32.14c7.9,0,15.6-2.43,22.07-6.96l6.1-4.27,6.1,4.27c6.47,4.53,14.17,6.96,22.07,6.96h32.14"/><path class="cls-3" d="M282.46,227.75c5.75-8.65,15.57-14.35,26.73-14.35h90.64c17.71,0,32.08,14.35,32.08,32.06v71.4h-120.13"/><circle class="cls-3" cx="354.51" cy="153.09" r="60.31"/><line class="cls-3" x1="191.15" y1="316.86" x2="311.77" y2="316.86"/><path class="cls-3" d="M274.42,480.64h54.43v-71.4c0-17.71-14.37-32.06-32.08-32.06h-90.64c-17.71,0-32.06,14.35-32.06,32.06v71.4h44.79"/><circle class="cls-3" cx="251.46" cy="316.86" r="60.31"/></svg>