<?xml version="1.0" encoding="UTF-8"?><svg id="Capa_1" xmlns="http://www.w3.org/2000/svg" viewBox="0 0 512 512"><defs><style>.cls-1{fill:#3397e8;}.cls-2{fill:#ffd33a;}.cls-3{fill:#ffb632;}.cls-4{fill:#e9eef2;}.cls-5{fill:#2978b8;}</style></defs><path class="cls-5" d="M256,488s-184-24-184-368L256,24l184,96c0,344-184,368-184,368Z"/><path class="cls-1" d="M256,456s-152-40-152-320l152-80,152,80c0,280-152,320-152,320Z"/><path class="cls-2" d="M256,392c-48.6,0-88-39.4-88-88v-56c0-8.84,7.16-16,16-16h144c8.84,0,16,7.16,16,16v56c0,48.6-39.4,88-88,88Z"/><path class="cls-4" d="M184,192v40h32v-40c0-22.09,17.91-40,40-40s40,17.91,40,40v40h32v-40c0-39.76-32.24-72-72-72s-72,32.24-72,72Z"/><path class="cls-3" d="M280,288c0-13.76-11.58-24.82-25.53-23.95-12.01.74-21.77,10.57-22.43,22.58-.43,7.65,2.74,14.58,7.96,19.25v22.12c0,8.84,7.16,16,16,16s16-7.16,16-16v-22.12c4.91-4.39,8-10.78,8-17.88Z"/><path d="M443.7,112.91L259.7,16.91c-2.32-1.21-5.08-1.21-7.4,0L68.3,112.91c-2.64,1.38-4.3,4.11-4.3,7.09,0,79.35,9.82,148.39,29.18,205.21,15.63,45.88,37.5,83.98,64.99,113.27,47.41,50.51,94.8,57.2,96.8,57.46.34.05.69.07,1.04.07s.69-.02,1.04-.07c1.99-.26,49.38-6.95,96.8-57.46,27.49-29.29,49.36-67.4,64.99-113.27,19.36-56.82,29.18-125.86,29.18-205.21,0-2.98-1.66-5.71-4.3-7.09h0ZM343.06,426.57c-39.83,42.93-80.15,52.04-87.08,53.33-6.89-1.25-46.4-10.02-86.15-52.37-40.6-43.25-88.93-130.81-89.82-302.68L256,33.02l175.99,91.82c-.89,170.94-48.73,258.4-88.92,301.72h0ZM252.27,48.92l-152,80c-2.63,1.38-4.27,4.11-4.27,7.08,0,64.72,8.13,122.13,24.15,170.63,12.93,39.13,31.01,72.61,53.73,99.53,39.18,46.4,78.43,57.14,80.08,57.58.67.18,1.35.26,2.04.26s1.37-.09,2.04-.26c1.65-.43,40.9-11.18,80.08-57.58,22.73-26.91,40.8-60.4,53.73-99.53,16.03-48.5,24.15-105.91,24.15-170.63,0-2.97-1.65-5.7-4.27-7.08l-152-80c-2.33-1.23-5.12-1.23-7.45,0ZM399.98,140.82c-.89,138.33-40.22,214.44-73.28,254.04-31.07,37.22-62.49,49.92-70.71,52.74-8.21-2.83-39.64-15.53-70.71-52.75-33.05-39.6-72.39-115.72-73.28-254.04l143.98-75.78,143.98,75.78ZM176,192v33.38c-9.31,3.3-16,12.2-16,22.62v56c0,52.93,43.07,96,96,96s96-43.07,96-96v-56c0-10.43-6.69-19.32-16-22.62v-33.38c0-44.11-35.89-80-80-80s-80,35.89-80,80h0ZM336,304c0,44.11-35.89,80-80,80s-80-35.89-80-80v-56c0-4.41,3.59-8,8-8h144c4.41,0,8,3.59,8,8v56ZM288,224h-64v-32c0-17.65,14.35-32,32-32s32,14.35,32,32v32ZM320,192v32h-16v-32c0-26.47-21.53-48-48-48s-48,21.53-48,48v32h-16v-32c0-35.29,28.71-64,64-64s64,28.71,64,64ZM256,352c-13.23,0-24-10.77-24-24v-18.84c-5.12-5.81-8-13.34-8-21.16,0-17.64,14.35-32,32-32s32,14.36,32,32c0,7.82-2.88,15.35-8,21.16v18.84c0,13.23-10.77,24-24,24ZM256,272c-8.82,0-16,7.18-16,16,0,4.54,1.95,8.89,5.34,11.92,1.7,1.52,2.66,3.68,2.66,5.96v22.12c0,4.41,3.59,8,8,8s8-3.59,8-8v-22.12c0-2.27.97-4.44,2.66-5.96,3.39-3.04,5.34-7.38,5.34-11.92,0-8.82-7.18-16-16-16Z"/></svg>