<?xml version="1.0" encoding="UTF-8"?><svg id="Capa_1" xmlns="http://www.w3.org/2000/svg" viewBox="0 0 512 512"><defs><style>.cls-1{fill:#8ac9fe;}.cls-2{fill:#fd4755;}.cls-3{fill:#fe646f;}.cls-4{fill:none;stroke:#000;stroke-linecap:round;stroke-linejoin:round;stroke-width:15px;}.cls-5{fill:#ab695d;}.cls-6{fill:#ca6e59;}.cls-7{fill:#fe9901;}.cls-8{fill:#fb8801;}.cls-9{fill:#7e4c42;}.cls-10{fill:#60b7ff;}.cls-11{fill:#ea9b58;}.cls-12{fill:#fed2a4;}.cls-13{fill:#7a6d79;}</style></defs><path class="cls-3" d="M105.02,281.25c0-11.16-9.04-20.2-20.2-20.2H27.72c-11.16,0-20.2,9.05-20.2,20.2v44.98h97.51v-44.98Z"/><path class="cls-2" d="M84.82,261.05h-26.26c11.16,0,20.2,9.05,20.2,20.2v44.98h26.26v-44.98c0-11.16-9.04-20.2-20.2-20.2Z"/><circle class="cls-6" cx="56.27" cy="223.06" r="37.99"/><path class="cls-13" d="M56.27,185.06c-10.3,0-19.64,4.11-26.49,10.77l20.49,20.49c4.32,4.32,10.17,6.74,16.27,6.74h27.72c0-20.98-17.01-37.99-37.99-37.99Z"/><path class="cls-3" d="M234.86,281.25c0-11.16-9.04-20.2-20.2-20.2h-57.1c-11.16,0-20.2,9.05-20.2,20.2v44.98h97.51v-44.98h0Z"/><path class="cls-2" d="M214.66,261.05h-26.26c11.16,0,20.2,9.05,20.2,20.2v44.98h26.26v-44.98c0-11.16-9.04-20.2-20.2-20.2Z"/><circle class="cls-8" cx="186.1" cy="173.27" r="20.54"/><circle class="cls-12" cx="186.1" cy="223.06" r="37.99"/><path class="cls-7" d="M186.1,185.06c-20.98,0-37.99,17.01-37.99,37.99h20.25c4.97,0,9.83-1.53,13.9-4.38l3.84-2.69,3.84,2.69c4.07,2.85,8.93,4.38,13.9,4.38h20.25c0-20.98-17.01-37.99-37.99-37.99Z"/><path class="cls-3" d="M169.94,384.43c0-11.16-9.04-20.2-20.2-20.2h-57.1c-11.16,0-20.2,9.05-20.2,20.2v44.98h97.51v-44.98h0Z"/><path class="cls-2" d="M149.74,364.23h-26.26c11.16,0,20.2,9.05,20.2,20.2v44.98h26.26v-44.98c0-11.16-9.04-20.2-20.2-20.2Z"/><circle class="cls-11" cx="121.19" cy="326.23" r="37.99"/><path class="cls-13" d="M121.19,288.24c-20.98,0-37.99,17.01-37.99,37.99h75.99c0-20.98-17.01-37.99-37.99-37.99Z"/><path class="cls-1" d="M504.51,281.25c0-11.16-9.05-20.2-20.2-20.2h-57.1c-11.16,0-20.2,9.05-20.2,20.2v44.98h97.51v-44.98h0Z"/><path class="cls-10" d="M484.31,261.05h-26.26c11.16,0,20.2,9.05,20.2,20.2v44.98h26.26v-44.98c0-11.16-9.05-20.2-20.2-20.2Z"/><circle class="cls-8" cx="455.76" cy="173.27" r="20.54"/><circle class="cls-12" cx="455.76" cy="223.06" r="37.99"/><path class="cls-7" d="M455.76,185.06c-20.98,0-37.99,17.01-37.99,37.99h20.25c4.97,0,9.83-1.53,13.9-4.38l3.84-2.69,3.84,2.69c4.08,2.85,8.93,4.38,13.9,4.38h20.25c0-20.98-17.01-37.99-37.99-37.99Z"/><path class="cls-1" d="M374.68,281.25c0-11.16-9.05-20.2-20.2-20.2h-57.1c-11.16,0-20.2,9.05-20.2,20.2v44.98h97.51v-44.98h0Z"/><path class="cls-10" d="M354.48,261.05h-26.26c11.16,0,20.2,9.05,20.2,20.2v44.98h26.26v-44.98c0-11.16-9.05-20.2-20.2-20.2Z"/><circle class="cls-6" cx="325.92" cy="223.06" r="37.99"/><path class="cls-13" d="M325.92,185.06c-20.98,0-37.99,17.01-37.99,37.99h75.99c0-20.98-17.01-37.99-37.99-37.99Z"/><path class="cls-1" d="M439.6,384.43c0-11.16-9.05-20.2-20.2-20.2h-57.1c-11.16,0-20.2,9.05-20.2,20.2v44.98h97.51v-44.98h0Z"/><path class="cls-10" d="M419.39,364.23h-26.26c11.16,0,20.2,9.05,20.2,20.2v44.98h26.26v-44.98c0-11.16-9.05-20.2-20.2-20.2Z"/><circle class="cls-9" cx="390.84" cy="276.45" r="20.54"/><circle class="cls-12" cx="390.84" cy="326.23" r="37.99"/><path class="cls-5" d="M390.84,288.24c-10.3,0-19.64,4.11-26.49,10.77l20.49,20.49c4.32,4.32,10.17,6.74,16.27,6.74h27.72c0-20.98-17.01-37.99-37.99-37.99Z"/><path class="cls-4" d="M29.78,195.83l20.49,20.49c4.32,4.32,10.17,6.74,16.27,6.74h27.72"/><path class="cls-4" d="M83.19,326.23H7.51v-44.98c0-11.16,9.05-20.2,20.2-20.2h57.11c7.03,0,13.22,3.59,16.84,9.04"/><circle class="cls-4" cx="56.27" cy="223.06" r="37.99"/><path class="cls-4" d="M200.52,187.9c3.78-3.72,6.12-8.9,6.12-14.62,0-11.34-9.19-20.55-20.54-20.55s-20.54,9.2-20.54,20.55c0,5.72,2.34,10.9,6.12,14.62"/><path class="cls-4" d="M148.11,223.06h20.25c4.97,0,9.83-1.53,13.9-4.38l3.84-2.69,3.84,2.69c4.07,2.85,8.93,4.38,13.9,4.38h20.25"/><path class="cls-4" d="M140.71,270.09c3.62-5.45,9.81-9.04,16.84-9.04h57.1c11.16,0,20.21,9.04,20.21,20.2v44.98h-75.68"/><circle class="cls-4" cx="186.1" cy="223.06" r="37.99"/><line class="cls-4" x1="83.19" y1="326.23" x2="159.18" y2="326.23"/><path class="cls-4" d="M135.65,429.41h34.29v-44.98c0-11.16-9.05-20.2-20.21-20.2h-57.1c-11.16,0-20.2,9.04-20.2,20.2v44.98h28.22"/><circle class="cls-4" cx="121.19" cy="326.23" r="37.99"/><path class="cls-4" d="M470.18,187.9c3.78-3.72,6.12-8.9,6.12-14.62,0-11.34-9.19-20.55-20.54-20.55s-20.54,9.2-20.54,20.55c0,5.72,2.34,10.9,6.12,14.62"/><path class="cls-4" d="M417.77,223.06h20.25c4.97,0,9.83-1.53,13.9-4.38l3.84-2.69,3.84,2.69c4.08,2.85,8.93,4.38,13.9,4.38h20.25"/><line class="cls-4" x1="450.08" y1="326.23" x2="428.83" y2="326.23"/><path class="cls-4" d="M410.37,270.08c3.62-5.44,9.81-9.03,16.83-9.03h57.11c11.15,0,20.2,9.04,20.2,20.2v44.98h-19.43"/><circle class="cls-4" cx="455.76" cy="223.06" r="37.99"/><line class="cls-4" x1="287.93" y1="223.06" x2="363.92" y2="223.06"/><path class="cls-4" d="M352.84,326.23h-75.68v-44.98c0-11.16,9.05-20.2,20.21-20.2h57.1c7.03,0,13.22,3.59,16.84,9.04"/><circle class="cls-4" cx="325.92" cy="223.06" r="37.99"/><path class="cls-4" d="M405.26,291.07c3.78-3.72,6.12-8.9,6.12-14.62,0-11.34-9.19-20.55-20.54-20.55s-20.54,9.2-20.54,20.55c0,5.72,2.34,10.9,6.12,14.62"/><path class="cls-4" d="M364.36,299.01l20.49,20.49c4.32,4.32,10.17,6.74,16.27,6.74h27.72"/><path class="cls-4" d="M439.6,429.41v-44.98c0-11.16-9.05-20.2-20.2-20.2h-57.1c-11.16,0-20.2,9.05-20.2,20.2v44.98h97.51Z"/><circle class="cls-4" cx="390.84" cy="326.23" r="37.99"/><path class="cls-4" d="M303.91,72.64s-9.79-8.23-21.33-4.75c-10.6,3.19-12.45,16.04-4.41,20.41,3.76,2.05,7.52,3.36,15.87,6.43,20.09,7.41,11.43,26.84-4.74,26.84-8.1,0-14.89-3.55-19.01-8.09"/><path class="cls-4" d="M206.31,67.03l18.65,53.73c.39,1.1,1.95,1.09,2.33-.02l17.81-53.61"/></svg>