<?xml version="1.0" encoding="UTF-8"?><svg id="Capa_1" xmlns="http://www.w3.org/2000/svg" viewBox="0 0 512 512"><defs><style>.cls-1{fill:#e6a74e;}.cls-2{fill:#ffd33a;}.cls-3{fill:#e63140;}.cls-4{fill:#57a3ff;}.cls-5{fill:#fa4655;}.cls-6{fill:#ffb632;}.cls-7{fill:#ffba57;}.cls-8{fill:#4e93e6;}.cls-9{fill:#e9eef2;}</style></defs><path class="cls-4" d="M55.46,44.92h104.12v79.34H55.46V44.92Z"/><path class="cls-5" d="M201.36,44.92h104.14v79.34h-104.14V44.92Z"/><path class="cls-7" d="M347.26,44.92h104.14v79.34h-104.14V44.92Z"/><path class="cls-8" d="M55.46,44.92h10.86v79.34h-10.86V44.92Z"/><path class="cls-3" d="M201.36,44.92h10.86v79.34h-10.86V44.92Z"/><path class="cls-1" d="M347.26,44.92h10.86v79.34h-10.86V44.92Z"/><path d="M187.46,228.64l-72.95-32.82v-64.58h45.06c3.86,0,6.99-3.13,6.99-6.99h0V44.92c0-3.86-3.12-6.99-6.98-6.99H55.46c-3.86,0-6.99,3.13-6.99,6.99h0v79.34c0,3.86,3.13,6.99,6.99,6.99h0s45.08,0,45.08,0v67.48c0,1.85.74,3.63,2.04,4.94l79.51,35.37,5.36-10.39ZM260.42,188.32v-57.07h45.06c3.86,0,6.99-3.13,6.99-6.99V44.92c0-3.86-3.13-6.99-6.98-6.99,0,0,0,0,0,0h-104.12c-3.86,0-6.99,3.13-6.99,6.99h0v79.34c0,3.86,3.13,6.99,6.99,6.99h45.08v56.74l13.98.34ZM321.81,240.89l82.47-37.23c1.31-1.31,2.05-3.09,2.05-4.94v-67.48h45.08c3.86,0,6.99-3.13,6.99-6.99h0V44.92c0-3.86-3.13-6.99-6.98-6.99,0,0,0,0,0,0h-104.14c-3.86,0-6.99,3.13-6.99,6.99h0v79.34c0,3.86,3.13,6.99,6.99,6.99h45.08v64.59l-74.37,33.96,3.83,11.1ZM354.25,51.9h90.17v65.37h-90.17V51.9ZM208.35,51.9h90.14v65.37h-90.14V51.9ZM62.45,51.9h90.14v65.37H62.45V51.9ZM135.49,104.09h-55.93c-3.86.05-7.02-3.04-7.07-6.9s3.04-7.02,6.9-7.07c.06,0,.11,0,.17,0h55.93c3.86.05,6.95,3.21,6.9,7.07-.05,3.79-3.11,6.86-6.9,6.9ZM72.57,72.04c0-3.86,3.13-6.99,6.99-6.99h55.93c3.86,0,6.99,3.13,6.98,6.99,0,3.86-3.13,6.98-6.98,6.98h-55.93c-3.86,0-6.99-3.13-6.99-6.99h0ZM281.39,104.09h-55.93c-3.86-.05-6.95-3.21-6.9-7.07.05-3.79,3.11-6.86,6.9-6.9h55.93c3.86.05,6.95,3.21,6.9,7.07-.05,3.79-3.11,6.86-6.9,6.9ZM218.47,72.04c0-3.86,3.13-6.99,6.99-6.99h55.93c3.86,0,6.99,3.13,6.98,6.99,0,3.86-3.13,6.98-6.98,6.98h-55.93c-3.86,0-6.99-3.13-6.99-6.99ZM427.29,104.09h-55.93c-3.86.05-7.02-3.04-7.07-6.9s3.04-7.02,6.9-7.07c.06,0,.11,0,.17,0h55.93c3.86-.05,7.02,3.04,7.07,6.9s-3.04,7.02-6.9,7.07c-.06,0-.11,0-.17,0ZM364.37,72.04c0-3.86,3.13-6.99,6.99-6.99h55.93c3.86,0,6.99,3.13,6.99,6.98,0,3.86-3.13,6.99-6.98,6.99h-55.94c-3.86,0-6.99-3.13-6.99-6.99h0Z"/><path class="cls-2" d="M251.46,468.32c-48.6,0-88-39.4-88-88v-56c0-8.84,7.16-16,16-16h144c8.84,0,16,7.16,16,16v56c0,48.6-39.4,88-88,88Z"/><path class="cls-9" d="M179.46,268.32v40h32v-40c0-22.09,17.91-40,40-40s40,17.91,40,40v40h32v-40c0-39.76-32.24-72-72-72s-72,32.24-72,72Z"/><path class="cls-6" d="M275.46,364.32c0-13.76-11.58-24.82-25.53-23.95-12.01.74-21.77,10.57-22.43,22.58-.43,7.65,2.74,14.58,7.96,19.25v22.12c0,8.84,7.16,16,16,16s16-7.16,16-16v-22.12c4.91-4.39,8-10.78,8-17.88Z"/><path d="M171.46,268.32v33.38c-9.31,3.3-16,12.2-16,22.62v56c0,52.93,43.07,96,96,96s96-43.07,96-96v-56c0-10.43-6.69-19.32-16-22.62v-33.38c0-44.11-35.89-80-80-80s-80,35.89-80,80h0ZM331.46,380.32c0,44.11-35.89,80-80,80s-80-35.89-80-80v-56c0-4.41,3.59-8,8-8h144c4.41,0,8,3.59,8,8v56ZM283.46,300.32h-64v-32c0-17.65,14.35-32,32-32s32,14.35,32,32v32ZM315.46,268.32v32h-16v-32c0-26.47-21.53-48-48-48s-48,21.53-48,48v32h-16v-32c0-35.29,28.71-64,64-64s64,28.71,64,64ZM251.46,428.32c-13.23,0-24-10.77-24-24v-18.84c-5.12-5.81-8-13.34-8-21.16,0-17.64,14.35-32,32-32s32,14.36,32,32c0,7.82-2.88,15.35-8,21.16v18.84c0,13.23-10.77,24-24,24ZM251.46,348.32c-8.82,0-16,7.18-16,16,0,4.54,1.95,8.89,5.34,11.92,1.7,1.52,2.66,3.68,2.66,5.96v22.12c0,4.41,3.59,8,8,8s8-3.59,8-8v-22.12c0-2.27.97-4.44,2.66-5.96,3.39-3.04,5.34-7.38,5.34-11.92,0-8.82-7.18-16-16-16Z"/></svg>