<?xml version="1.0" encoding="UTF-8"?><svg id="Capa_1" xmlns="http://www.w3.org/2000/svg" viewBox="0 0 512 512"><defs><style>.cls-1{fill:#607d8b;}.cls-2{fill:#f44335;}.cls-3{fill:#37474f;}.cls-4{fill:#dfc49c;}.cls-5{fill:#ffe0b2;}.cls-6{fill:#c81e1e;}.cls-7{fill:#0377bc;}.cls-8{fill:#02a9f4;}</style></defs><g id="Page-1"><g id="_065---Superhero"><path id="Shape" class="cls-5" d="M311.31,56.31h-110.59c11.39-19.77,32.47-31.96,55.29-31.96s43.9,12.19,55.29,31.96Z"/><path id="Shape-2" class="cls-4" d="M256.01,24.35c-4.03.04-8.04.46-11.99,1.26,18.22,3.43,34.03,14.65,43.31,30.7h23.97c-11.37-19.8-32.47-31.99-55.29-31.96Z"/><path id="Shape-3" class="cls-1" d="M319.94,88.27c0,5.39-.68,10.76-2,15.98h-45.94c-8.81-.03-15.95-7.17-15.98-15.98-.03,8.81-7.17,15.95-15.98,15.98h-45.94c-1.32-5.23-1.99-10.59-2-15.98-.04-11.23,2.94-22.27,8.63-31.96h110.59c5.69,9.69,8.67,20.73,8.63,31.96Z"/><path id="Shape-4" class="cls-3" d="M311.31,56.31h-23.97c5.69,9.69,8.67,20.73,8.63,31.96,0,5.39-.68,10.76-2,15.98h23.97c1.32-5.23,1.99-10.59,2-15.98.04-11.23-2.94-22.27-8.63-31.96Z"/><path id="Shape-5" class="cls-5" d="M317.94,104.25c-7.3,28.23-32.77,47.95-61.93,47.95s-54.62-19.72-61.93-47.95h45.94c8.81-.03,15.95-7.17,15.98-15.98.03,8.81,7.17,15.95,15.98,15.98h45.94Z"/><path id="Shape-6" class="cls-4" d="M293.97,104.25c-6.22,23.93-25.66,42.14-49.94,46.78,33.13,6.4,65.52-14.1,73.91-46.78h-23.97Z"/><path id="Shape-7" class="cls-8" d="M319.94,319.99v143.83c0,13.24-10.73,23.97-23.97,23.97h-15.98c-13.24,0-23.97-10.73-23.97-23.97,0,13.24-10.73,23.97-23.97,23.97h-15.98c-13.24,0-23.97-10.73-23.97-23.97v-143.83h127.85Z"/><path id="Shape-8" class="cls-7" d="M295.97,319.99v143.83c0,11.68-8.45,21.66-19.98,23.57,1.32.24,2.65.38,4,.4h15.98c13.24,0,23.97-10.73,23.97-23.97v-143.83h-23.97Z"/><path id="Shape-9" class="cls-2" d="M192.09,308.97v98.92s-84.14,0-84.14,0c-9.49-.02-18.31-4.88-23.4-12.89-5.08-8.01-5.72-18.07-1.69-26.66l35.64-75.75,36.04,33.08c6.59,5.96,16.09,7.48,24.21,3.87,8.12-3.61,13.36-11.68,13.34-20.57h0Z"/><path id="Shape-10" class="cls-2" d="M192.09,208.13v100.84c0-6.67-2.95-12.99-8.07-17.26l-26.37-22.85c-3.13-2.7-3.69-7.35-1.28-10.71l35.72-50.02Z"/><path id="Shape-11" class="cls-8" d="M399.36,287.23l-5.83,5.35-36.04,33.08c-6.03,5.5-14.58,7.3-22.32,4.7-7.74-2.6-13.46-9.19-14.95-17.22-1.49-8.03,1.49-16.23,7.78-21.44l26.37-22.85c3.13-2.7,3.69-7.35,1.28-10.71l-35.72-50.02v79.9h-127.85v-79.9l-35.72,50.02c-2.41,3.36-1.85,8.01,1.28,10.71l26.37,22.85c6.29,5.2,9.27,13.41,7.78,21.44-1.49,8.03-7.21,14.62-14.95,17.22-7.74,2.6-16.28.8-22.32-4.7l-36.04-33.08-5.83-5.35c-9.48-8.74-11.2-23.06-4.08-33.8l39.07-58.57c17.78-26.65,47.7-42.66,79.74-42.67h57.21c32.04,0,61.96,16.02,79.74,42.67l39.07,58.57c7.13,10.74,5.4,25.06-4.08,33.8h0Z"/><path id="Shape-12" class="cls-7" d="M403.44,253.43l-39.07-58.57c-17.78-26.65-47.7-42.66-79.74-42.67h-23.97c32.04,0,61.96,16.02,79.74,42.67l39.07,58.57c7.13,10.74,5.4,25.06-4.08,33.8l-5.83,5.35-36.04,33.08c-.95.83-1.97,1.58-3.04,2.25,8.46,5.51,19.58,4.58,27.01-2.25l36.04-33.08,5.83-5.35c9.48-8.74,11.2-23.06,4.08-33.8h0Z"/><path id="Shape-13" class="cls-2" d="M354.38,268.85l-26.37,22.85c-5.12,4.27-8.08,10.59-8.07,17.26v-100.84l35.72,50.02c2.41,3.36,1.85,8.01-1.28,10.71Z"/><path id="Rectangle-path" class="cls-2" d="M192.09,288.03h127.85v31.96h-127.85v-31.96Z"/><path id="Rectangle-path-2" class="cls-6" d="M295.97,288.03h23.97v31.96h-23.97v-31.96Z"/><path id="Shape-14" class="cls-2" d="M404.08,407.89h-84.14v-98.92c-.03,8.9,5.2,16.98,13.33,20.6s17.64,2.09,24.23-3.9l36.04-33.08,35.64,75.75c4.03,8.59,3.39,18.65-1.69,26.66-5.08,8.01-13.91,12.88-23.4,12.89Z"/><path id="Shape-15" class="cls-6" d="M429.17,368.33l-35.64-75.75-16.74,15.37,28.41,60.38c4.03,8.59,3.39,18.65-1.69,26.66-5.08,8.01-13.91,12.88-23.4,12.89h23.97c9.49-.02,18.31-4.88,23.4-12.89,5.08-8.01,5.72-18.07,1.69-26.66h0Z"/><path id="Shape-16" d="M77.83,399.31c6.52,10.35,17.91,16.61,30.14,16.57h76.13v47.94c0,17.65,14.31,31.96,31.96,31.96h15.98c9.21-.03,17.96-4.06,23.97-11.04,6.01,6.98,14.76,11.01,23.97,11.04h15.98c17.65,0,31.96-14.31,31.96-31.96v-47.94h76.12c12.23-.01,23.6-6.27,30.15-16.6s7.37-23.28,2.17-34.35l-33.14-70.44,1.52-1.4c12.45-11.35,14.7-30.11,5.3-44.09l-38.98-58.54c-16.34-24.51-42.34-40.9-71.5-45.08,24.57-18.68,34.48-50.96,24.62-80.21-9.86-29.25-37.28-48.95-68.15-48.95s-58.29,19.7-68.15,48.95c-9.86,29.25.05,61.53,24.62,80.21-29.16,4.18-55.16,20.57-71.5,45.08l-39.02,58.54c-9.41,13.98-7.15,32.74,5.3,44.09l1.52,1.4-33.18,70.45c-5.24,11.07-4.42,24.05,2.17,34.37ZM327.93,233.07l21.23,29.72-21.23,18.4v-48.13ZM311.95,308.57v3.43h-111.87v-15.98h111.87v12.55ZM184.1,281.19l-21.23-18.38,21.23-29.75v48.13ZM295.97,479.8h-15.98c-8.83,0-15.98-7.15-15.98-15.98v-103.87c0-4.41-3.58-7.99-7.99-7.99s-7.99,3.58-7.99,7.99v103.87c0,8.83-7.15,15.98-15.98,15.98h-15.98c-8.83,0-15.98-7.15-15.98-15.98v-135.84h111.87v135.84c0,8.83-7.15,15.98-15.98,15.98ZM421.91,371.73c2.89,6.13,2.43,13.3-1.22,19.01-3.57,5.75-9.87,9.22-16.64,9.16h-21.65l-6.7-33.56c-.92-4.27-5.09-7.01-9.38-6.16s-7.09,4.99-6.29,9.29l6.07,30.36h-38.18v-64.24c11.28,6.45,25.44,4.83,34.98-4l27.97-25.74,31.03,65.88ZM256.01,144.2c-21.58-.03-41.21-12.47-50.46-31.96h34.48c5.9,0,11.59-2.18,15.98-6.12,4.39,3.95,10.08,6.13,15.98,6.12h34.48c-9.25,19.49-28.88,31.93-50.46,31.96ZM295.08,48.32h-78.13c21.69-21.31,56.44-21.31,78.13,0ZM205.59,64.3h100.92c3.58,7.48,5.44,15.67,5.44,23.97-.02,2.68-.24,5.35-.64,7.99h-39.31c-4.41,0-7.99-3.58-7.99-7.99s-3.58-7.99-7.99-7.99-7.99,3.58-7.99,7.99-3.58,7.99-7.99,7.99h-39.31c-.4-2.64-.62-5.32-.64-7.99.01-8.3,1.88-16.49,5.47-23.97h.03ZM115.3,257.87l39-58.53c16.27-24.48,43.73-39.18,73.13-39.15h57.18c29.4-.03,56.85,14.67,73.13,39.15l39.02,58.55c5,7.44,3.8,17.41-2.81,23.45l-41.79,38.43c-4.23,3.81-10.3,4.79-15.52,2.51-5.22-2.28-8.62-7.4-8.71-13.09v-.33c.03-4.34,1.99-8.43,5.34-11.19l26.37-22.84c6.26-5.38,7.36-14.66,2.53-21.36l-34.24-47.94v-5.39c0-4.41-3.58-7.99-7.99-7.99s-7.99,3.58-7.99,7.99v79.9h-111.87v-79.9c0-4.41-3.58-7.99-7.99-7.99s-7.99,3.58-7.99,7.99v5.43l-34.23,47.94c-4.83,6.7-3.73,15.99,2.53,21.37l26.47,22.93c3.27,2.72,5.19,6.74,5.23,10.99v.48c-.12,5.66-3.52,10.74-8.71,13s-11.22,1.31-15.46-2.46l-41.85-38.51c-6.62-6.04-7.82-16.02-2.81-23.45h.02ZM90.12,371.74l31-65.91,28.06,25.8c9.53,8.8,23.65,10.41,34.92,4v64.28h-38.18s6.07-30.36,6.07-30.36c.8-4.3-2.01-8.43-6.29-9.29s-8.46,1.89-9.38,6.16l-6.7,33.5h-21.65c-6.76.06-13.06-3.41-16.63-9.16-3.65-5.7-4.11-12.88-1.22-19h0Z"/></g></g></svg>