<?xml version="1.0" encoding="UTF-8"?><svg id="Ebene_1" xmlns="http://www.w3.org/2000/svg" viewBox="0 0 716.93 227.51"><defs><style>.cls-1{fill:#fff;}</style></defs><path class="cls-1" d="M124.71.56l3.19-.56c1.25,1.75,2.13,4.22,2.63,7.42.5,3.19.53,6.76.09,10.7-.44,3.94-1.38,8.07-2.82,12.39-1.44,4.32-3.38,8.42-5.82,12.29-2.44,3.88-5.51,7.39-9.2,10.51-3.69,3.13-7.98,5.44-12.86,6.95-4.63,1.38-9.79,1.97-15.49,1.78-5.7-.19-12.05-1.53-19.05-4.04h.19c1.13,1.25,2.16,2.5,3.1,3.75.94,1.25,1.66,2.79,2.16,4.6.5,1.82.69,4.04.56,6.66-.13,2.63-.69,5.82-1.69,9.57l-15.39,56.88c-.38,1.13-.69,2.54-.94,4.22-.25,1.69-.44,3.41-.56,5.16-.13,1.75-.16,3.41-.09,4.97.06,1.57.34,2.85.84,3.85.75,2.13,2.25,2.88,4.5,2.25l.75,1.5c-2.5,2-5.44,3.57-8.82,4.69-3.38,1.12-6.63,1.63-9.76,1.5-4.76,0-8.57-1.06-11.45-3.19-2.88-2.13-5.01-4.85-6.38-8.17-1.38-3.31-2.1-6.97-2.16-10.98-.06-4,.41-7.82,1.41-11.45l18.58-69.08c1.25-7.26.72-12.86-1.6-16.8-2.32-3.94-5.35-6.54-9.1-7.79-2.75-.87-5.57-1.09-8.45-.66-2.88.44-5.48,1.44-7.79,3-2.32,1.57-4.22,3.63-5.72,6.19-1.5,2.57-2.32,5.6-2.44,9.1l-4.5-.38c-.88-3.88-.84-7.7.09-11.45s2.53-7.23,4.79-10.42c2.25-3.19,5-5.91,8.26-8.17,3.25-2.25,6.76-3.88,10.51-4.88,5.5-1.38,11.26-1.88,17.27-1.5,6.01.38,12.01.94,18.02,1.69,6.01.75,11.98,1.44,17.93,2.06,5.94.63,11.61.56,16.99-.19,6.01-1,11.61-3.25,16.8-6.76,5.19-3.5,9.6-9.26,13.23-17.27h.19Z"/><path class="cls-1" d="M176.52,135.9c-1.75,6.26-3.79,11.42-6.1,15.49-2.32,4.07-4.94,7.35-7.88,9.86-2.94,2.5-6.23,4.26-9.85,5.26-3.63,1-7.57,1.5-11.83,1.5-10.14,0-17.36-2.31-21.68-6.95-4.32-4.63-5.6-11.89-3.85-21.78.75-3.88,1.81-8.19,3.19-12.95,1.38-4.75,2.72-9.35,4.04-13.8,1.31-4.44,2.41-8.41,3.29-11.92.87-3.5,1.13-6.01.75-7.51-1-2.13-2.57-2.88-4.69-2.25l-.75-1.31c3.63-2.88,7.79-4.82,12.48-5.82,4.69-1,9.04-1,13.05,0,2.25.63,4.32,1.47,6.19,2.54,1.88,1.06,3.38,2.63,4.5,4.69,1.13,2.06,1.75,4.69,1.88,7.88.12,3.19-.5,7.1-1.88,11.73-.13.38-.41,1.38-.84,3-.44,1.63-1,3.63-1.69,6.01-.69,2.38-1.41,4.88-2.16,7.51-.75,2.63-1.44,5.1-2.06,7.42-.63,2.32-1.19,4.32-1.69,6.01-.5,1.69-.75,2.66-.75,2.91-.75,2.63-.53,4.82.66,6.57,1.19,1.75,2.84,2.94,4.97,3.57,2.25.63,4.47.35,6.66-.84,2.19-1.19,4.16-2.78,5.91-4.79,1.75-2,3.29-4.16,4.6-6.47,1.31-2.31,2.22-4.35,2.72-6.1l2.63.56h.19ZM153.05,40.17c2.5,0,4.88.47,7.13,1.41,2.25.94,4.19,2.25,5.82,3.94,1.62,1.69,2.91,3.63,3.85,5.82.94,2.19,1.41,4.54,1.41,7.04,0,5.13-1.75,9.45-5.26,12.95-3.5,3.51-7.82,5.26-12.95,5.26-2.5,0-4.85-.47-7.04-1.41-2.19-.94-4.13-2.22-5.82-3.85-1.69-1.62-3-3.57-3.94-5.82s-1.41-4.63-1.41-7.13.47-4.85,1.41-7.04c.94-2.19,2.25-4.13,3.94-5.82s3.63-3,5.82-3.94c2.19-.94,4.54-1.41,7.04-1.41Z"/><path class="cls-1" d="M270.37,111.69l-9.76,35.48c-.38,1-.69,2.16-.94,3.47-.25,1.31-.38,2.69-.38,4.13s.25,2.91.75,4.41c.5,1.5,1.44,2.94,2.82,4.32l-.75,3c-2.75.38-5.29.66-7.6.84-2.32.19-4.66.22-7.04.09-3.88-.12-7.32-.66-10.32-1.59-3-.94-5.38-2.5-7.13-4.69-1.75-2.19-2.79-5.1-3.1-8.73-.31-3.63.28-8.2,1.78-13.7,1.38-5.26,2.84-10.45,4.41-15.58,1.56-5.13,3.03-10.32,4.41-15.58,1-3.63.91-6.91-.28-9.86-1.19-2.94-2.97-4.72-5.35-5.35-2.63-.87-5.63.16-9.01,3.1-3.38,2.94-6.32,8.73-8.82,17.36l-9.38,34.35c-.63,2.13-1,4.66-1.13,7.6-.13,2.94,1.06,5.85,3.57,8.73l-.75,3c-2.63.38-5.13.66-7.51.84-2.38.19-4.69.22-6.95.09-3.88-.12-7.32-.66-10.32-1.59-3-.94-5.38-2.5-7.13-4.69-1.75-2.19-2.82-5.1-3.19-8.73-.38-3.63.13-8.2,1.5-13.7l8.07-29.85c.38-1.13.69-2.5.94-4.13.25-1.62.44-3.31.56-5.07.12-1.75.16-3.44.09-5.07-.06-1.62-.35-2.94-.84-3.94-.88-2-2.44-2.75-4.69-2.25l-.75-1.5c2.63-2,5.63-3.57,9.01-4.69,3.38-1.12,6.63-1.62,9.76-1.5,3.13,0,5.88.5,8.26,1.5,2.38,1,4.35,2.38,5.91,4.13,1.56,1.75,2.82,3.79,3.75,6.1.94,2.32,1.53,4.79,1.78,7.42,1.88-3.5,4.16-6.54,6.85-9.11,2.69-2.56,5.6-4.66,8.73-6.29,3.13-1.62,6.35-2.75,9.67-3.38,3.31-.62,6.6-.75,9.85-.38,5.26.63,9.86,2.47,13.8,5.54,3.94,3.07,6.41,7.41,7.42,13.04,1.88-3.5,4.13-6.5,6.76-9.01,2.63-2.5,5.5-4.5,8.63-6.01,3.13-1.5,6.32-2.56,9.57-3.19,3.25-.62,6.44-.75,9.57-.38,3.63.38,7.01,1.41,10.14,3.1,3.13,1.69,5.69,3.94,7.7,6.76,2,2.82,3.22,6.26,3.66,10.32.44,4.07-.16,8.67-1.78,13.8-.13.5-.6,2.22-1.41,5.16-.81,2.94-1.69,6.1-2.63,9.48-.94,3.38-1.78,6.54-2.53,9.48-.75,2.94-1.19,4.6-1.31,4.97-.75,2.75-.56,5.01.56,6.76,1.13,1.75,2.82,2.94,5.07,3.57,2.25.63,4.44.31,6.57-.94,2.13-1.25,4.1-2.88,5.91-4.88,1.81-2,3.35-4.16,4.6-6.47,1.25-2.31,2.13-4.35,2.63-6.1l2.63.56c-1.63,6.26-3.6,11.42-5.91,15.48-2.32,4.07-4.94,7.35-7.88,9.86-2.94,2.51-6.23,4.26-9.85,5.26-3.63,1-7.57,1.5-11.83,1.5-10.14,0-17.36-2.31-21.68-6.95-4.32-4.63-5.54-11.89-3.66-21.78.38-2.25.94-4.79,1.69-7.6.75-2.81,1.53-5.66,2.35-8.54.81-2.88,1.62-5.69,2.44-8.45.81-2.75,1.53-5.26,2.16-7.51,1-3.63.91-6.91-.28-9.86-1.19-2.94-2.97-4.72-5.35-5.35-1.25-.38-2.63-.31-4.13.19-1.5.5-3.07,1.5-4.69,3-1.63,1.5-3.16,3.6-4.6,6.29-1.44,2.69-2.72,5.98-3.85,9.85h.19Z"/><path class="cls-1" d="M345.08,113.57c2-5.76,4.88-10.7,8.63-14.83,3.75-4.13,8.01-7.51,12.76-10.14,4.75-2.63,9.79-4.57,15.11-5.82,5.32-1.25,10.61-1.88,15.86-1.88s10.45.81,14.83,2.44c4.38,1.63,8.07,3.75,11.08,6.38,3,2.63,5.19,5.63,6.57,9.01,1.38,3.38,1.88,6.82,1.5,10.32-.38,3.38-1.69,6.7-3.94,9.95-2.25,3.26-5.57,6.19-9.95,8.82-4.38,2.63-9.85,4.72-16.42,6.29-6.57,1.57-14.36,2.22-23.37,1.97,2,8.76,8.2,14.46,18.58,17.08,5.13,1.38,9.88,1.6,14.27.66,4.38-.94,8.29-2.6,11.73-4.97,3.44-2.38,6.38-5.35,8.82-8.92s4.29-7.42,5.54-11.54l3.75,1.13c-1.5,6.38-4.13,11.95-7.88,16.71-3.75,4.76-8.17,8.73-13.23,11.92s-10.64,5.6-16.71,7.23c-6.07,1.63-12.23,2.38-18.49,2.25-8.26-.12-15.46-1.47-21.59-4.04-6.13-2.56-10.95-6.19-14.45-10.89-3.5-4.69-5.57-10.35-6.19-16.99-.62-6.63.44-14.01,3.19-22.15ZM376.99,131.59c4-.12,7.57-1.25,10.7-3.38,3.13-2.13,5.82-4.72,8.07-7.79,2.25-3.06,4.07-6.38,5.44-9.95,1.38-3.57,2.31-6.91,2.82-10.04.5-3.13.53-5.79.09-7.98-.44-2.19-1.29-3.47-2.53-3.85-1.5-.38-3.22-.22-5.16.47-1.94.69-3.97,2.1-6.1,4.22-2.13,2.13-4.19,5.07-6.19,8.82-2,3.75-3.75,8.51-5.26,14.27-.75,2.88-1.31,5.57-1.69,8.07-.38,2.5-.44,4.88-.19,7.13Z"/><path class="cls-1" d="M465.21,155.8c-2,7.13-3.94,14.23-5.82,21.3-1.88,7.07-3.75,14.17-5.63,21.3-.38,1.13-.69,2.54-.94,4.22-.25,1.69-.47,3.41-.66,5.16-.19,1.75-.22,3.41-.09,4.97.12,1.56.38,2.84.75,3.85,1,1.88,2.56,2.63,4.69,2.25l.75,1.69c-2.5,2.13-5.44,3.78-8.82,4.97-3.38,1.19-6.63,1.84-9.76,1.97-4.75,0-8.57-1.03-11.45-3.1-2.88-2.06-5-4.72-6.38-7.98-1.38-3.26-2.09-6.85-2.16-10.79-.06-3.94.35-7.79,1.22-11.54l22.53-83.72c.25-1.13.53-2.5.84-4.13.31-1.62.53-3.31.66-5.07.12-1.75.16-3.44.09-5.07-.06-1.62-.35-2.94-.84-3.94-1-2.13-2.57-2.88-4.69-2.25l-.75-1.5c2.63-1.88,5.63-3.38,9.01-4.51,3.38-1.12,6.63-1.69,9.76-1.69s5.85.5,8.17,1.5c2.31,1,4.29,2.35,5.91,4.04,1.62,1.69,2.88,3.69,3.75,6.01.87,2.32,1.5,4.72,1.88,7.23,2.88-6.5,7.1-11.48,12.67-14.92,5.57-3.44,12.17-4.72,19.8-3.85,4.63.5,8.45,1.85,11.45,4.04,3,2.19,5.35,4.88,7.04,8.07,1.69,3.19,2.78,6.76,3.29,10.7.5,3.94.62,7.98.38,12.11-.5,6.38-1.97,12.79-4.41,19.24s-5.72,12.2-9.85,17.27c-4.13,5.07-9.1,9.1-14.92,12.11-5.82,3-12.29,4.19-19.43,3.57-3.88-.25-7.41-1.34-10.61-3.29-3.19-1.94-5.72-4.91-7.6-8.92l.19-1.31ZM489.24,142.47c2.5-4.88,4.54-9.95,6.1-15.21,1.56-5.26,2.85-10.45,3.85-15.58,1.25-7.26,1.09-12.45-.47-15.58-1.57-3.12-3.72-4.41-6.48-3.85-2.75.56-5.66,2.79-8.73,6.66-3.07,3.88-5.54,9.14-7.42,15.77v.19c-1.13,4.38-2.28,8.79-3.47,13.23-1.19,4.44-2.41,8.85-3.66,13.23-.25,1.25-.41,2.54-.47,3.85-.07,1.31.06,2.53.38,3.66.31,1.12.84,2.13,1.6,3,.75.88,1.81,1.5,3.19,1.88,1.25.38,2.63.31,4.13-.19,1.5-.5,2.94-1.28,4.32-2.35,1.38-1.06,2.69-2.35,3.94-3.85,1.25-1.5,2.31-3.13,3.19-4.88Z"/><path class="cls-1" d="M575.4,167.81c-8.01-.5-14.64-2.25-19.9-5.26-5.26-3-9.32-6.79-12.2-11.36-2.88-4.57-4.63-9.67-5.26-15.3-.62-5.63-.31-11.26.94-16.89,1.38-5.63,3.66-10.98,6.85-16.05s7.16-9.38,11.92-12.95c4.75-3.57,10.29-6.13,16.61-7.7,6.32-1.56,13.29-1.66,20.93-.28,6.13,1.13,11.39,3.13,15.77,6.01,4.38,2.88,7.85,6.29,10.42,10.23,2.56,3.94,4.32,8.26,5.26,12.95s1.16,9.42.66,14.17c5.5-1.5,9.98-4.35,13.42-8.54,3.44-4.19,6.35-9.04,8.73-14.55l3.19,1.31c-1.38,3.13-2.85,6.19-4.41,9.2-1.57,3-3.38,5.72-5.44,8.17-2.06,2.44-4.44,4.57-7.13,6.38-2.69,1.82-5.85,3.1-9.48,3.85-1.25,5.13-3.35,9.98-6.29,14.55-2.94,4.57-6.57,8.57-10.89,12.01-4.32,3.44-9.32,6.07-15.02,7.88-5.7,1.82-11.98,2.54-18.86,2.16h.19ZM594.54,126.7c-5.13-3.5-8.82-8.32-11.08-14.45-2.25-6.13-1.94-12.95.94-20.46-2.63,3.26-5.1,7.63-7.41,13.14-2.32,5.51-4.29,11.39-5.91,17.64-1.13,4.38-2,8.7-2.63,12.95-.63,4.26-.88,8.1-.75,11.54.12,3.44.62,6.32,1.5,8.63.87,2.32,2.19,3.72,3.94,4.22,1.88.5,3.85-.09,5.91-1.78,2.07-1.69,4.04-4.1,5.91-7.23,1.88-3.13,3.63-6.82,5.26-11.07,1.62-4.25,3.06-8.63,4.32-13.14ZM595.86,121.26c.75-3.25,1.31-6.22,1.69-8.92.38-2.69.69-5.1.94-7.23.62-5.76.5-9.73-.38-11.92-.88-2.19-2-3.22-3.38-3.1-1.63.25-3.13,1.75-4.5,4.51-1.38,2.75-2.06,5.95-2.06,9.57,0,2.88.56,5.82,1.69,8.82,1.13,3,3.13,5.76,6.01,8.26Z"/><path class="cls-1" d="M716.93,135.53c-1.88,5.88-4.38,10.86-7.51,14.92-3.13,4.07-6.6,7.35-10.42,9.85-3.82,2.51-7.85,4.35-12.11,5.54-4.26,1.19-8.45,1.78-12.58,1.78-4.5,0-8.67-.75-12.48-2.25-3.82-1.5-7.01-3.75-9.57-6.76-2.57-3-4.29-6.72-5.16-11.17-.87-4.44-.56-9.6.94-15.49l12.39-46.18h-10.32l1.69-7.32h10.7l7.51-28.34c.38-1.13.69-2.5.94-4.13.25-1.62.44-3.31.56-5.07.12-1.75.16-3.44.09-5.07-.06-1.62-.35-2.94-.84-3.94-.88-2-2.44-2.75-4.69-2.25l-.75-1.5c2.63-1.88,5.63-3.38,9.01-4.5s6.63-1.69,9.76-1.69c4.63,0,8.42,1.06,11.36,3.19,2.94,2.13,5.1,4.85,6.48,8.17,1.38,3.32,2.09,6.98,2.16,10.98.06,4.01-.41,7.88-1.41,11.64l-6.19,22.52h17.65l-1.69,7.32h-18.02l-13.52,50.12c-1,3.51-.78,6.79.66,9.86,1.44,3.07,3.6,5.1,6.48,6.1,2.13.63,4.35.94,6.66.94s4.6-.59,6.85-1.78c2.25-1.19,4.41-3.06,6.48-5.63,2.06-2.56,3.91-6.1,5.54-10.61l3.38.75Z"/></svg>