<?xml version="1.0" encoding="UTF-8"?>
<svg id="Ebene_1" xmlns="http://www.w3.org/2000/svg" version="1.1" viewBox="0 0 721 233.1">
  <!-- Generator: Adobe Illustrator 29.8.1, SVG Export Plug-In . SVG Version: 2.1.1 Build 2)  -->
  <defs>
    <style>
      .st0 {
        fill: #c27bff;
      }
    </style>
  </defs>
  <path class="st0" d="M126.7,3.3l3.2-.6c1.2,1.8,2.1,4.2,2.6,7.4.5,3.2.5,6.8,0,10.7-.4,3.9-1.4,8.1-2.8,12.4-1.4,4.3-3.4,8.4-5.8,12.3-2.4,3.9-5.5,7.4-9.2,10.5-3.7,3.1-8,5.4-12.9,6.9-4.6,1.4-9.8,2-15.5,1.8-5.7-.2-12-1.5-19.1-4h.2c1.1,1.3,2.2,2.5,3.1,3.8.9,1.3,1.7,2.8,2.2,4.6.5,1.8.7,4,.6,6.7-.1,2.6-.7,5.8-1.7,9.6l-15.4,56.9c-.4,1.1-.7,2.5-.9,4.2-.3,1.7-.4,3.4-.6,5.2-.1,1.8-.2,3.4,0,5,0,1.6.3,2.8.8,3.8.8,2.1,2.3,2.9,4.5,2.3l.8,1.5c-2.5,2-5.4,3.6-8.8,4.7-3.4,1.1-6.6,1.6-9.8,1.5-4.8,0-8.6-1.1-11.5-3.2-2.9-2.1-5-4.8-6.4-8.2-1.4-3.3-2.1-7-2.2-11,0-4,.4-7.8,1.4-11.5l18.6-69.1c1.2-7.3.7-12.9-1.6-16.8-2.3-3.9-5.3-6.5-9.1-7.8-2.8-.9-5.6-1.1-8.4-.7-2.9.4-5.5,1.4-7.8,3-2.3,1.6-4.2,3.6-5.7,6.2-1.5,2.6-2.3,5.6-2.4,9.1l-4.5-.4c-.9-3.9-.8-7.7,0-11.5s2.5-7.2,4.8-10.4c2.3-3.2,5-5.9,8.3-8.2,3.3-2.3,6.8-3.9,10.5-4.9,5.5-1.4,11.3-1.9,17.3-1.5,6,.4,12,.9,18,1.7,6,.8,12,1.4,17.9,2.1,5.9.6,11.6.6,17-.2,6-1,11.6-3.3,16.8-6.8,5.2-3.5,9.6-9.3,13.2-17.3h.2Z"/>
  <path class="st0" d="M178.6,138.7c-1.8,6.3-3.8,11.4-6.1,15.5-2.3,4.1-4.9,7.4-7.9,9.9-2.9,2.5-6.2,4.3-9.9,5.3-3.6,1-7.6,1.5-11.8,1.5-10.1,0-17.4-2.3-21.7-6.9-4.3-4.6-5.6-11.9-3.8-21.8.8-3.9,1.8-8.2,3.2-13,1.4-4.8,2.7-9.4,4-13.8,1.3-4.4,2.4-8.4,3.3-11.9.9-3.5,1.1-6,.8-7.5-1-2.1-2.6-2.9-4.7-2.3l-.8-1.3c3.6-2.9,7.8-4.8,12.5-5.8,4.7-1,9-1,13,0,2.3.6,4.3,1.5,6.2,2.5,1.9,1.1,3.4,2.6,4.5,4.7,1.1,2.1,1.8,4.7,1.9,7.9.1,3.2-.5,7.1-1.9,11.7-.1.4-.4,1.4-.8,3-.4,1.6-1,3.6-1.7,6-.7,2.4-1.4,4.9-2.2,7.5-.8,2.6-1.4,5.1-2.1,7.4-.6,2.3-1.2,4.3-1.7,6-.5,1.7-.8,2.7-.8,2.9-.8,2.6-.5,4.8.7,6.6,1.2,1.8,2.8,2.9,5,3.6,2.3.6,4.5.3,6.7-.8,2.2-1.2,4.2-2.8,5.9-4.8,1.8-2,3.3-4.2,4.6-6.5,1.3-2.3,2.2-4.3,2.7-6.1l2.6.6h.2ZM155.1,42.9c2.5,0,4.9.5,7.1,1.4,2.3.9,4.2,2.3,5.8,3.9,1.6,1.7,2.9,3.6,3.8,5.8.9,2.2,1.4,4.5,1.4,7,0,5.1-1.8,9.4-5.3,13-3.5,3.5-7.8,5.3-13,5.3s-4.9-.5-7-1.4c-2.2-.9-4.1-2.2-5.8-3.8-1.7-1.6-3-3.6-3.9-5.8s-1.4-4.6-1.4-7.1.5-4.8,1.4-7c.9-2.2,2.3-4.1,3.9-5.8s3.6-3,5.8-3.9c2.2-.9,4.5-1.4,7-1.4Z"/>
  <path class="st0" d="M272.4,114.5l-9.8,35.5c-.4,1-.7,2.2-.9,3.5-.3,1.3-.4,2.7-.4,4.1s.2,2.9.8,4.4c.5,1.5,1.4,2.9,2.8,4.3l-.8,3c-2.8.4-5.3.7-7.6.8-2.3.2-4.7.2-7,0-3.9-.1-7.3-.7-10.3-1.6-3-.9-5.4-2.5-7.1-4.7-1.8-2.2-2.8-5.1-3.1-8.7-.3-3.6.3-8.2,1.8-13.7,1.4-5.3,2.8-10.4,4.4-15.6,1.6-5.1,3-10.3,4.4-15.6,1-3.6.9-6.9-.3-9.9-1.2-2.9-3-4.7-5.3-5.3-2.6-.9-5.6.2-9,3.1-3.4,2.9-6.3,8.7-8.8,17.4l-9.4,34.4c-.6,2.1-1,4.7-1.1,7.6-.1,2.9,1.1,5.9,3.6,8.7l-.8,3c-2.6.4-5.1.7-7.5.8-2.4.2-4.7.2-6.9,0-3.9-.1-7.3-.7-10.3-1.6-3-.9-5.4-2.5-7.1-4.7-1.8-2.2-2.8-5.1-3.2-8.7-.4-3.6.1-8.2,1.5-13.7l8.1-29.8c.4-1.1.7-2.5.9-4.1.2-1.6.4-3.3.6-5.1.1-1.8.2-3.4,0-5.1,0-1.6-.3-2.9-.8-3.9-.9-2-2.4-2.8-4.7-2.3l-.8-1.5c2.6-2,5.6-3.6,9-4.7,3.4-1.1,6.6-1.6,9.8-1.5,3.1,0,5.9.5,8.3,1.5,2.4,1,4.3,2.4,5.9,4.1,1.6,1.8,2.8,3.8,3.8,6.1.9,2.3,1.5,4.8,1.8,7.4,1.9-3.5,4.2-6.5,6.9-9.1,2.7-2.6,5.6-4.7,8.7-6.3,3.1-1.6,6.3-2.8,9.7-3.4,3.3-.6,6.6-.8,9.9-.4,5.3.6,9.9,2.5,13.8,5.5,3.9,3.1,6.4,7.4,7.4,13,1.9-3.5,4.1-6.5,6.8-9,2.6-2.5,5.5-4.5,8.6-6,3.1-1.5,6.3-2.6,9.6-3.2,3.3-.6,6.4-.8,9.6-.4,3.6.4,7,1.4,10.1,3.1,3.1,1.7,5.7,3.9,7.7,6.8,2,2.8,3.2,6.3,3.7,10.3.4,4.1-.2,8.7-1.8,13.8-.1.5-.6,2.2-1.4,5.2-.8,2.9-1.7,6.1-2.6,9.5-.9,3.4-1.8,6.5-2.5,9.5-.8,2.9-1.2,4.6-1.3,5-.8,2.8-.6,5,.6,6.8,1.1,1.8,2.8,2.9,5.1,3.6,2.3.6,4.4.3,6.6-.9,2.1-1.2,4.1-2.9,5.9-4.9,1.8-2,3.3-4.2,4.6-6.5,1.2-2.3,2.1-4.3,2.6-6.1l2.6.6c-1.6,6.3-3.6,11.4-5.9,15.5-2.3,4.1-4.9,7.4-7.9,9.9-2.9,2.5-6.2,4.3-9.9,5.3-3.6,1-7.6,1.5-11.8,1.5-10.1,0-17.4-2.3-21.7-6.9-4.3-4.6-5.5-11.9-3.7-21.8.4-2.3.9-4.8,1.7-7.6.8-2.8,1.5-5.7,2.3-8.5.8-2.9,1.6-5.7,2.4-8.4.8-2.8,1.5-5.3,2.2-7.5,1-3.6.9-6.9-.3-9.9-1.2-2.9-3-4.7-5.3-5.3-1.3-.4-2.6-.3-4.1.2-1.5.5-3.1,1.5-4.7,3-1.6,1.5-3.2,3.6-4.6,6.3-1.4,2.7-2.7,6-3.8,9.9h.2Z"/>
  <path class="st0" d="M347.1,116.3c2-5.8,4.9-10.7,8.6-14.8,3.8-4.1,8-7.5,12.8-10.1,4.8-2.6,9.8-4.6,15.1-5.8,5.3-1.2,10.6-1.9,15.9-1.9s10.4.8,14.8,2.4c4.4,1.6,8.1,3.8,11.1,6.4,3,2.6,5.2,5.6,6.6,9,1.4,3.4,1.9,6.8,1.5,10.3-.4,3.4-1.7,6.7-3.9,9.9-2.3,3.3-5.6,6.2-9.9,8.8-4.4,2.6-9.9,4.7-16.4,6.3-6.6,1.6-14.4,2.2-23.4,2,2,8.8,8.2,14.5,18.6,17.1,5.1,1.4,9.9,1.6,14.3.7,4.4-.9,8.3-2.6,11.7-5,3.4-2.4,6.4-5.3,8.8-8.9s4.3-7.4,5.5-11.5l3.8,1.1c-1.5,6.4-4.1,12-7.9,16.7-3.8,4.8-8.2,8.7-13.2,11.9s-10.6,5.6-16.7,7.2c-6.1,1.6-12.2,2.4-18.5,2.3-8.3-.1-15.5-1.5-21.6-4-6.1-2.6-11-6.2-14.5-10.9-3.5-4.7-5.6-10.4-6.2-17-.6-6.6.4-14,3.2-22.1ZM379,134.4c4-.1,7.6-1.2,10.7-3.4,3.1-2.1,5.8-4.7,8.1-7.8,2.3-3.1,4.1-6.4,5.4-9.9,1.4-3.6,2.3-6.9,2.8-10,.5-3.1.5-5.8,0-8-.4-2.2-1.3-3.5-2.5-3.8-1.5-.4-3.2-.2-5.2.5-1.9.7-4,2.1-6.1,4.2-2.1,2.1-4.2,5.1-6.2,8.8-2,3.8-3.8,8.5-5.3,14.3-.8,2.9-1.3,5.6-1.7,8.1-.4,2.5-.4,4.9-.2,7.1Z"/>
  <path class="st0" d="M467.2,158.6c-2,7.1-3.9,14.2-5.8,21.3-1.9,7.1-3.8,14.2-5.6,21.3-.4,1.1-.7,2.5-.9,4.2-.3,1.7-.5,3.4-.7,5.2-.2,1.8-.2,3.4,0,5,.1,1.6.4,2.8.8,3.8,1,1.9,2.6,2.6,4.7,2.3l.8,1.7c-2.5,2.1-5.4,3.8-8.8,5-3.4,1.2-6.6,1.8-9.8,2-4.8,0-8.6-1-11.5-3.1-2.9-2.1-5-4.7-6.4-8-1.4-3.3-2.1-6.9-2.2-10.8,0-3.9.3-7.8,1.2-11.5l22.5-83.7c.2-1.1.5-2.5.8-4.1.3-1.6.5-3.3.7-5.1.1-1.8.2-3.4,0-5.1,0-1.6-.3-2.9-.8-3.9-1-2.1-2.6-2.9-4.7-2.3l-.8-1.5c2.6-1.9,5.6-3.4,9-4.5,3.4-1.1,6.6-1.7,9.8-1.7s5.8.5,8.2,1.5c2.3,1,4.3,2.3,5.9,4,1.6,1.7,2.9,3.7,3.8,6,.9,2.3,1.5,4.7,1.9,7.2,2.9-6.5,7.1-11.5,12.7-14.9,5.6-3.4,12.2-4.7,19.8-3.8,4.6.5,8.4,1.8,11.5,4,3,2.2,5.3,4.9,7,8.1,1.7,3.2,2.8,6.8,3.3,10.7.5,3.9.6,8,.4,12.1-.5,6.4-2,12.8-4.4,19.2s-5.7,12.2-9.9,17.3c-4.1,5.1-9.1,9.1-14.9,12.1-5.8,3-12.3,4.2-19.4,3.6-3.9-.2-7.4-1.3-10.6-3.3-3.2-1.9-5.7-4.9-7.6-8.9l.2-1.3ZM491.3,145.2c2.5-4.9,4.5-9.9,6.1-15.2,1.6-5.3,2.8-10.4,3.8-15.6,1.2-7.3,1.1-12.4-.5-15.6-1.6-3.1-3.7-4.4-6.5-3.8-2.8.6-5.7,2.8-8.7,6.7-3.1,3.9-5.5,9.1-7.4,15.8v.2c-1.1,4.4-2.3,8.8-3.5,13.2-1.2,4.4-2.4,8.9-3.7,13.2-.3,1.3-.4,2.5-.5,3.8,0,1.3,0,2.5.4,3.7.3,1.1.8,2.1,1.6,3,.8.9,1.8,1.5,3.2,1.9,1.2.4,2.6.3,4.1-.2,1.5-.5,2.9-1.3,4.3-2.3,1.4-1.1,2.7-2.3,3.9-3.8,1.2-1.5,2.3-3.1,3.2-4.9Z"/>
  <path class="st0" d="M577.4,170.6c-8-.5-14.6-2.3-19.9-5.3-5.3-3-9.3-6.8-12.2-11.4-2.9-4.6-4.6-9.7-5.3-15.3-.6-5.6-.3-11.3.9-16.9,1.4-5.6,3.7-11,6.9-16.1s7.2-9.4,11.9-13c4.8-3.6,10.3-6.1,16.6-7.7,6.3-1.6,13.3-1.7,20.9-.3,6.1,1.1,11.4,3.1,15.8,6,4.4,2.9,7.9,6.3,10.4,10.2,2.6,3.9,4.3,8.3,5.3,13s1.2,9.4.7,14.2c5.5-1.5,10-4.3,13.4-8.5,3.4-4.2,6.3-9,8.7-14.5l3.2,1.3c-1.4,3.1-2.8,6.2-4.4,9.2-1.6,3-3.4,5.7-5.4,8.2-2.1,2.4-4.4,4.6-7.1,6.4-2.7,1.8-5.9,3.1-9.5,3.8-1.3,5.1-3.3,10-6.3,14.5-2.9,4.6-6.6,8.6-10.9,12-4.3,3.4-9.3,6.1-15,7.9-5.7,1.8-12,2.5-18.9,2.2h.2ZM596.6,129.5c-5.1-3.5-8.8-8.3-11.1-14.5-2.3-6.1-1.9-13,.9-20.5-2.6,3.3-5.1,7.6-7.4,13.1-2.3,5.5-4.3,11.4-5.9,17.6-1.1,4.4-2,8.7-2.6,13-.6,4.3-.9,8.1-.8,11.5.1,3.4.6,6.3,1.5,8.6.9,2.3,2.2,3.7,3.9,4.2,1.9.5,3.8,0,5.9-1.8,2.1-1.7,4-4.1,5.9-7.2,1.9-3.1,3.6-6.8,5.3-11.1,1.6-4.3,3.1-8.6,4.3-13.1ZM597.9,124c.8-3.3,1.3-6.2,1.7-8.9.4-2.7.7-5.1.9-7.2.6-5.8.5-9.7-.4-11.9-.9-2.2-2-3.2-3.4-3.1-1.6.3-3.1,1.8-4.5,4.5-1.4,2.8-2.1,5.9-2.1,9.6s.6,5.8,1.7,8.8c1.1,3,3.1,5.8,6,8.3Z"/>
  <path class="st0" d="M719,138.3c-1.9,5.9-4.4,10.9-7.5,14.9-3.1,4.1-6.6,7.4-10.4,9.9-3.8,2.5-7.9,4.3-12.1,5.5-4.3,1.2-8.4,1.8-12.6,1.8s-8.7-.8-12.5-2.3c-3.8-1.5-7-3.8-9.6-6.8-2.6-3-4.3-6.7-5.2-11.2-.9-4.4-.6-9.6.9-15.5l12.4-46.2h-10.3l1.7-7.3h10.7l7.5-28.3c.4-1.1.7-2.5.9-4.1.2-1.6.4-3.3.6-5.1.1-1.8.2-3.4,0-5.1,0-1.6-.3-2.9-.8-3.9-.9-2-2.4-2.8-4.7-2.3l-.8-1.5c2.6-1.9,5.6-3.4,9-4.5s6.6-1.7,9.8-1.7c4.6,0,8.4,1.1,11.4,3.2,2.9,2.1,5.1,4.9,6.5,8.2,1.4,3.3,2.1,7,2.2,11,0,4-.4,7.9-1.4,11.6l-6.2,22.5h17.6l-1.7,7.3h-18l-13.5,50.1c-1,3.5-.8,6.8.7,9.9,1.4,3.1,3.6,5.1,6.5,6.1,2.1.6,4.3.9,6.7.9s4.6-.6,6.9-1.8c2.3-1.2,4.4-3.1,6.5-5.6,2.1-2.6,3.9-6.1,5.5-10.6l3.4.8Z"/>
</svg>