<?xml version="1.0" encoding="UTF-8"?><svg id="Ebene_1" xmlns="http://www.w3.org/2000/svg" viewBox="0 0 745 130"><defs><style>.cls-1{fill:#e5c0f9;}.cls-2{fill-rule:evenodd;}.cls-2,.cls-3{fill:#9d4ede;}</style></defs><path class="cls-1" d="M641.24,65.86c0-14.98-6.38-28.29-12.57-37.68-1.55-2.35.14-5.49,2.96-5.49h.03c1.95,0,3.54-1.58,3.54-3.54v-5.01c0-1.96-1.59-3.54-3.54-3.54l-125.87.05c-1.95,0-3.54,1.59-3.54,3.54v5.01c0,1.95,1.58,3.54,3.54,3.54h0c2.82,0,4.51,3.13,2.96,5.48-6.18,9.38-12.53,22.68-12.53,37.63,0,11.7,5.12,22.53,13.78,31.35,1.3,1.33,1.34,3.44.1,4.83l-5.91,6.61c-1.3,1.46-1.18,3.69.28,5l3.73,3.34c1.46,1.3,3.69,1.18,5-.28l6.93-7.74c1.11-1.24,2.94-1.54,4.39-.71,12.25,6.98,27.59,11.14,44.22,11.14s31.97-4.16,44.22-11.14c1.45-.83,3.28-.53,4.39.71l6.98,7.8c1.3,1.46,3.54,1.58,5,.28l3.73-3.34c1.46-1.3,1.58-3.54.28-5l-5.96-6.66c-1.24-1.39-1.2-3.5.1-4.83,8.66-8.82,13.78-19.65,13.78-31.35h-.01Z"/><path class="cls-3" d="M585.07,72.88l-10.5-8.49v-25.33c0-4.08-3.32-7.41-7.41-7.41s-7.41,3.32-7.41,7.41v32.4l15.97,12.93c1.31,1.07,2.97,1.66,4.67,1.66,2.23,0,4.32-.99,5.75-2.72l.03-.03c2.56-3.17,2.06-7.84-1.1-10.41Z"/><path class="cls-2" d="M503.23,106.27l9.31-9.29c2.98-3,7.88-3,10.86-.02v.02c2.98,2.98,2.98,7.88,0,10.86l-9.31,9.31c-2.98,2.98-7.88,2.98-10.86,0-2.98-3-2.98-7.88,0-10.89Z"/><path class="cls-2" d="M635.22,106.27l-9.31-9.29c-3-3-7.88-3-10.86-.02l-.02.02c-2.98,2.98-2.98,7.88,0,10.86l9.31,9.31c3,2.98,7.88,2.98,10.86,0h.02c2.98-3,2.98-7.88,0-10.89Z"/><rect class="cls-3" x="497.22" y="7.23" width="28.55" height="15.67" rx="7.83" ry="7.83"/><rect class="cls-3" x="610.38" y="7.23" width="28.55" height="15.67" rx="7.83" ry="7.83"/><path class="cls-3" d="M39.27,119.67V30.31c0-1.72-1.39-3.11-3.11-3.11H8.93c-1.72,0-3.11-1.39-3.11-3.11v-13.75c0-1.72,1.39-3.11,3.11-3.11h85.41c1.72,0,3.11,1.39,3.11,3.11v13.75c0,1.72-1.39,3.11-3.11,3.11h-27.23c-1.72,0-3.11,1.39-3.11,3.11v89.37c0,1.72-1.39,3.11-3.11,3.11h-18.5c-1.72,0-3.11-1.39-3.11-3.11Z"/><path class="cls-3" d="M112.28,119.67V10.33c0-1.72,1.39-3.11,3.11-3.11h18.5c1.72,0,3.11,1.39,3.11,3.11v109.34c0,1.72-1.39,3.11-3.11,3.11h-18.5c-1.72,0-3.11-1.39-3.11-3.11Z"/><path class="cls-3" d="M158.42,119.67V10.33c0-1.72,1.39-3.11,3.11-3.11h24.62c1.18,0,2.26.67,2.79,1.73l30.61,61.92c1.15,2.32,4.45,2.31,5.58-.02l30.16-61.89c.52-1.07,1.61-1.75,2.8-1.75h24.44c1.72,0,3.11,1.39,3.11,3.11v109.34c0,1.72-1.39,3.11-3.11,3.11h-18.5c-1.72,0-3.11-1.39-3.11-3.11v-57.79c0-3.28-4.41-4.33-5.89-1.4l-22.26,44.08c-.53,1.05-1.6,1.71-2.78,1.71h-15.95c-1.18,0-2.25-.66-2.78-1.71l-22.26-44.21c-1.47-2.93-5.89-1.88-5.89,1.4v57.92c0,1.72-1.39,3.11-3.11,3.11h-18.5c-1.72,0-3.11-1.39-3.11-3.11Z"/><path class="cls-3" d="M307.08,119.67V10.33c0-1.72,1.39-3.11,3.11-3.11h71.07c1.72,0,3.11,1.39,3.11,3.11v13.75c0,1.72-1.39,3.11-3.11,3.11h-46.35c-1.72,0-3.11,1.39-3.11,3.11v21.02c0,1.72,1.39,3.11,3.11,3.11h41.41c1.72,0,3.11,1.39,3.11,3.11v12.93c0,1.72-1.39,3.11-3.11,3.11h-41.41c-1.72,0-3.11,1.39-3.11,3.11v23c0,1.72,1.39,3.11,3.11,3.11h46.35c1.72,0,3.11,1.39,3.11,3.11v13.75c0,1.72-1.39,3.11-3.11,3.11h-71.07c-1.72,0-3.11-1.39-3.11-3.11Z"/><path class="cls-3" d="M403.49,119.67V10.33c0-1.72,1.39-3.11,3.11-3.11h41.88c9.34,0,17.11,1.6,23.32,4.79,6.21,3.19,10.85,7.51,13.93,12.96,3.07,5.45,4.61,11.7,4.61,18.74,0,6.27-1.46,12.16-4.37,17.66-2.91,5.5-7.47,9.96-13.68,13.37-6.21,3.41-14.15,5.12-23.81,5.12h-17.16c-1.72,0-3.11,1.39-3.11,3.11v36.7c0,1.72-1.39,3.11-3.11,3.11h-18.5c-1.72,0-3.11-1.39-3.11-3.11ZM428.21,56.94c0,1.72,1.39,3.11,3.11,3.11h15.51c6.48,0,11.15-1.49,14.01-4.46,2.86-2.97,4.28-6.93,4.28-11.89s-1.43-9.19-4.28-12.05c-2.86-2.86-7.53-4.29-14.01-4.29h-15.51c-1.72,0-3.11,1.39-3.11,3.11v26.47Z"/><path class="cls-3" d="M681.01,119.67V30.31c0-1.72-1.39-3.11-3.11-3.11h-27.23c-1.72,0-3.11-1.39-3.11-3.11v-13.75c0-1.72,1.39-3.11,3.11-3.11h85.41c1.72,0,3.11,1.39,3.11,3.11v13.75c0,1.72-1.39,3.11-3.11,3.11h-27.23c-1.72,0-3.11,1.39-3.11,3.11v89.37c0,1.72-1.39,3.11-3.11,3.11h-18.5c-1.72,0-3.11-1.39-3.11-3.11Z"/></svg>